<svg width="47" height="38" viewBox="0 0 47 38" fill="none" xmlns="http://www.w3.org/2000/svg">
<path d="M38.52 5.18318C38.508 5.15968 38.4881 5.14126 38.4639 5.13123C35.6643 3.83304 32.7098 2.90734 29.6745 2.37727C29.6469 2.37209 29.6184 2.37583 29.5931 2.38795C29.5677 2.40008 29.5468 2.41997 29.5333 2.44481C29.131 3.18276 28.7658 3.94075 28.4391 4.7159C25.1672 4.21395 21.839 4.21395 18.5671 4.7159C18.2383 3.93879 17.8672 3.1806 17.4557 2.44481C17.4416 2.42051 17.4205 2.40108 17.3953 2.38903C17.3701 2.37698 17.3419 2.37289 17.3144 2.37727C14.2787 2.90622 11.3241 3.832 8.52479 5.13131C8.50082 5.14157 8.4806 5.1591 8.46692 5.18148C2.86885 13.6304 1.33533 21.8716 2.08762 30.0107C2.08974 30.0306 2.0958 30.05 2.10545 30.0675C2.11511 30.085 2.12815 30.1004 2.1438 30.1127C5.4035 32.552 9.04952 34.4139 12.9263 35.619C12.9536 35.6272 12.9827 35.6269 13.0098 35.6179C13.0369 35.6089 13.0606 35.5918 13.0778 35.5688C13.9104 34.4238 14.6482 33.2114 15.2836 31.9438C15.2923 31.9264 15.2973 31.9073 15.2982 31.8878C15.2991 31.8684 15.296 31.8489 15.2889 31.8308C15.2818 31.8126 15.271 31.7962 15.2572 31.7826C15.2434 31.7689 15.2269 31.7584 15.2088 31.7517C14.0453 31.3018 12.919 30.7595 11.8403 30.1298C11.8207 30.1182 11.8043 30.1018 11.7924 30.0822C11.7806 30.0626 11.7737 30.0404 11.7723 30.0175C11.771 29.9945 11.7752 29.9716 11.7847 29.9508C11.7942 29.9299 11.8087 29.9117 11.8268 29.8978C12.0531 29.7264 12.2796 29.5482 12.4957 29.3681C12.5149 29.3521 12.5381 29.3419 12.5628 29.3385C12.5874 29.3352 12.6125 29.3388 12.6352 29.3491C19.702 32.6086 27.3528 32.6086 34.336 29.3491C34.3588 29.3382 34.3841 29.334 34.4091 29.3371C34.4341 29.3401 34.4578 29.3503 34.4773 29.3664C34.6935 29.5465 34.9199 29.7264 35.1479 29.8978C35.1661 29.9116 35.1807 29.9296 35.1903 29.9504C35.2 29.9712 35.2044 29.9941 35.2032 30.017C35.2021 30.04 35.1953 30.0622 35.1836 30.0819C35.1719 30.1016 35.1555 30.118 35.136 30.1298C34.0598 30.7648 32.9325 31.3068 31.766 31.75C31.7479 31.757 31.7314 31.7677 31.7177 31.7816C31.704 31.7954 31.6933 31.812 31.6864 31.8303C31.6794 31.8486 31.6764 31.8682 31.6775 31.8877C31.6785 31.9073 31.6837 31.9264 31.6926 31.9438C32.3386 33.2043 33.0753 34.4152 33.8967 35.5668C33.9134 35.5904 33.937 35.6081 33.9642 35.6175C33.9914 35.6268 34.0208 35.6272 34.0482 35.6187C37.9319 34.4177 41.5843 32.5557 44.8481 30.1127C44.864 30.101 44.8772 30.086 44.8869 30.0687C44.8966 30.0514 44.9025 30.0322 44.9043 30.0124C45.8049 20.6027 43.3964 12.4291 38.52 5.18318ZM16.339 25.0548C14.2113 25.0548 12.4582 23.0816 12.4582 20.6582C12.4582 18.2348 14.1773 16.2614 16.339 16.2614C18.5175 16.2614 20.2536 18.2519 20.2196 20.658C20.2196 23.0816 18.5005 25.0548 16.339 25.0548ZM30.6872 25.0548C28.5596 25.0548 26.8065 23.0816 26.8065 20.6582C26.8065 18.2348 28.5256 16.2614 30.6872 16.2614C32.8659 16.2614 34.6019 18.2519 34.5679 20.658C34.5679 23.0816 32.8659 25.0548 30.6872 25.0548Z" fill="#667085"/>
</svg>
