<svg width="44" height="44" viewBox="0 0 44 44" fill="none" xmlns="http://www.w3.org/2000/svg">
<path d="M41.0074 11.6921C39.6019 12.3169 38.0893 12.7383 36.5021 12.9269C38.1226 11.9568 39.3652 10.4201 39.9511 8.58693C38.4354 9.48644 36.7574 10.1391 34.9701 10.4915C33.5397 8.96722 31.5009 8.01416 29.2447 8.01416C24.9132 8.01416 21.4013 11.5261 21.4013 15.8583C21.4013 16.4722 21.4704 17.0706 21.6047 17.6457C15.0854 17.3182 9.30489 14.1959 5.43598 9.44996C4.76077 10.6079 4.37426 11.9552 4.37426 13.3942C4.37426 16.1152 5.75884 18.5165 7.86365 19.9228C6.57842 19.8817 5.36846 19.5285 4.31062 18.941C4.30985 18.9736 4.30985 19.007 4.30985 19.0404C4.30985 22.8402 7.01381 26.0098 10.6025 26.7316C9.94441 26.9101 9.25134 27.0063 8.53577 27.0063C8.02974 27.0063 7.53846 26.9575 7.0596 26.8651C8.05846 29.9812 10.9549 32.2497 14.3869 32.3126C11.7023 34.4166 8.32078 35.6708 4.64513 35.6708C4.0126 35.6708 3.38783 35.6336 2.77393 35.5606C6.24624 37.7873 10.3689 39.0849 14.7982 39.0849C29.2269 39.0849 37.116 27.1329 37.116 16.7671C37.116 16.4272 37.109 16.088 37.0943 15.7512C38.6263 14.6476 39.9566 13.2653 41.0074 11.6921Z" fill="#667085"/>
</svg>
