<svg width="24" height="24" viewBox="0 0 24 24" fill="none" xmlns="http://www.w3.org/2000/svg">
<g clip-path="url(#clip0_112_1427)">
<path d="M16.611 8.144L17.312 8.856L11.519 14.563C11.239 14.844 10.862 15 10.461 15C10.06 15 9.684 14.844 9.4 14.561L6.612 11.859L7.308 11.141L10.101 13.848C10.301 14.047 10.625 14.043 10.813 13.853L16.61 8.143L16.611 8.144ZM23.685 13.263L19.24 21.625C18.788 22.473 17.912 23 16.954 23H7.067C6.11 23 5.236 22.475 4.784 21.629L0.317001 13.272C-0.106999 12.479 -0.106999 11.531 0.317001 10.737L4.784 2.372C5.236 1.525 6.111 1 7.068 1H16.955C17.913 1 18.789 1.527 19.241 2.375L23.686 10.737C24.106 11.528 24.106 12.471 23.686 13.262L23.685 13.263ZM22.802 11.207L18.357 2.846C18.079 2.325 17.542 2 16.954 2H7.067C6.48 2 5.943 2.323 5.665 2.843L1.199 11.208C0.933001 11.707 0.933001 12.302 1.199 12.801L5.665 21.157C5.943 21.677 6.48 22 7.066 22H16.953C17.541 22 18.078 21.676 18.356 21.154L22.801 12.794C23.065 12.297 23.066 11.704 22.802 11.207Z" fill="#00ADEE"/>
</g>
<defs>
<clipPath id="clip0_112_1427">
<rect width="24" height="24" fill="white"/>
</clipPath>
</defs>
</svg>
