<svg width="33" height="20" viewBox="0 0 33 20" fill="none" xmlns="http://www.w3.org/2000/svg">
<path d="M32.343 1.475C32.349 1.086 32.197 0.711 31.925 0.433C31.654 0.156 31.279 0 30.89 0H24.494C24.313 0 24.15 0.109 24.081 0.276C24.014 0.443 24.053 0.635 24.18 0.763L25.413 1.995C25.608 2.189 25.719 2.452 25.719 2.727C25.719 3.001 25.611 3.265 25.414 3.459L19.154 9.716C18.618 10.253 17.749 10.253 17.215 9.716L13.176 5.677C12.937 5.438 12.614 5.304 12.276 5.304C11.938 5.304 11.614 5.438 11.375 5.677L0.872 16.174C0.376 16.672 0.376 17.479 0.872 17.977L2.226 19.329C2.465 19.568 2.788 19.701 3.126 19.701C3.464 19.701 3.787 19.568 4.026 19.331L11.303 12.055C11.839 11.52 12.708 11.52 13.243 12.055L17.211 16.024C17.469 16.28 17.816 16.423 18.182 16.423C18.548 16.423 18.897 16.277 19.155 16.024L28.571 6.607C28.764 6.413 29.028 6.304 29.301 6.304C29.575 6.304 29.84 6.413 30.032 6.608L31.485 8.065C31.612 8.192 31.801 8.231 31.969 8.164C32.135 8.097 32.242 7.936 32.248 7.757L32.343 1.475Z" fill="white"/>
</svg>
