<svg width="64" height="64" viewBox="0 0 64 64" fill="none" xmlns="http://www.w3.org/2000/svg">
<rect width="64" height="64" rx="15" fill="#259BC8"/>
<path fill-rule="evenodd" clip-rule="evenodd" d="M28.4466 45.5065C28.0376 45.4666 27.6334 45.4109 27.2343 45.3402C27.0647 45.3101 26.9025 45.4234 26.8725 45.5929C26.8424 45.7625 26.9556 45.9246 27.1252 45.9547C27.5402 46.0284 27.9607 46.0863 28.386 46.1278C28.5574 46.1444 28.7102 46.0189 28.7269 45.8473C28.7437 45.6759 28.618 45.5231 28.4466 45.5065ZM33.332 45.218C32.9359 45.305 32.5341 45.3769 32.1275 45.4331C31.9568 45.4566 31.8374 45.6142 31.861 45.7848C31.8846 45.9555 32.0422 46.0749 32.2129 46.0514C32.6359 45.9929 33.0538 45.9182 33.4657 45.8277C33.634 45.7907 33.7407 45.6241 33.7037 45.4559C33.6668 45.2876 33.5002 45.1811 33.332 45.218ZM26.0389 45.0789C25.6424 44.9757 25.2518 44.8572 24.8681 44.7242C24.7053 44.6678 24.5275 44.7541 24.471 44.9168C24.4145 45.0797 24.501 45.2577 24.6637 45.314C25.0629 45.4524 25.4692 45.5757 25.8818 45.6831C26.0485 45.7264 26.219 45.6263 26.2625 45.4596C26.3057 45.2929 26.2057 45.1224 26.0389 45.0789ZM35.6711 44.5068C35.293 44.6553 34.9075 44.7895 34.5156 44.9086C34.3508 44.9588 34.2577 45.1332 34.3078 45.2981C34.3579 45.4629 34.5324 45.5559 34.6972 45.5059C35.105 45.3819 35.5059 45.2422 35.8993 45.0878C36.0598 45.0248 36.1387 44.8434 36.0758 44.6831C36.0129 44.5228 35.8314 44.4437 35.6711 44.5068ZM23.7288 44.2782C23.3541 44.1141 22.9869 43.9357 22.6281 43.7437C22.4764 43.6625 22.287 43.7198 22.2058 43.8716C22.1245 44.0235 22.1819 44.2129 22.3336 44.2941C22.7068 44.4938 23.0887 44.6794 23.4785 44.85C23.6362 44.9191 23.8205 44.847 23.8896 44.6893C23.9586 44.5315 23.8867 44.3472 23.7288 44.2782ZM37.8696 43.4364C37.5188 43.6428 37.1592 43.8359 36.7914 44.015C36.6365 44.0903 36.5721 44.2773 36.6475 44.4322C36.7228 44.5869 36.9098 44.6515 37.0647 44.5762C37.4472 44.3899 37.8213 44.1892 38.1862 43.9745C38.3347 43.8872 38.3843 43.6957 38.2969 43.5472C38.2096 43.3988 38.0181 43.349 37.8696 43.4364ZM21.5729 43.1245C21.2287 42.9041 20.8939 42.6705 20.569 42.4246C20.4316 42.3206 20.2356 42.3477 20.1317 42.4851C20.0278 42.6225 20.0548 42.8184 20.1922 42.9222C20.5302 43.1781 20.8783 43.421 21.2361 43.65C21.3811 43.7431 21.5744 43.7007 21.6672 43.5556C21.7601 43.4106 21.7179 43.2174 21.5729 43.1245ZM39.8743 42.0355C39.5594 42.2944 39.2341 42.5413 38.8993 42.7753C38.7582 42.8738 38.7236 43.0686 38.8223 43.2099C38.921 43.351 39.1158 43.3854 39.2569 43.2869C39.6051 43.0436 39.9432 42.7869 40.2707 42.5177C40.4037 42.4084 40.4229 42.2115 40.3135 42.0785C40.2042 41.9453 40.0073 41.9261 39.8743 42.0355ZM17.9144 39.8743C17.6556 39.5594 17.4088 39.2341 17.1748 38.8993C17.0761 38.7582 16.8813 38.7236 16.7402 38.8223C16.5991 38.921 16.5645 39.1158 16.6632 39.2569C16.9065 39.6051 17.1631 39.9432 17.4323 40.2707C17.5417 40.4037 17.7386 40.4229 17.8716 40.3135C18.0046 40.2042 18.024 40.0073 17.9144 39.8743ZM43.1245 38.3772C42.9041 38.7213 42.6705 39.0562 42.4246 39.3811C42.3206 39.5185 42.3477 39.7143 42.4851 39.8183C42.6225 39.9222 42.8184 39.8951 42.9222 39.7577C43.1781 39.4199 43.421 39.0717 43.65 38.714C43.7431 38.569 43.7007 38.3757 43.5556 38.2828C43.4106 38.1899 43.2174 38.2322 43.1245 38.3772ZM16.5135 37.8696C16.3072 37.5188 16.1141 37.1592 15.9351 36.7914C15.8598 36.6365 15.6728 36.5721 15.5179 36.6475C15.363 36.7228 15.2986 36.9098 15.3739 37.0647C15.5601 37.4472 15.7609 37.8213 15.9756 38.1862C16.0629 38.3347 16.2544 38.3843 16.4028 38.2969C16.5513 38.2096 16.6009 38.0181 16.5135 37.8696ZM44.2782 36.2211C44.1141 36.5959 43.9357 36.9631 43.7437 37.3218C43.6625 37.4737 43.7198 37.6631 43.8716 37.7442C44.0235 37.8256 44.2129 37.7682 44.2941 37.6163C44.4938 37.2431 44.6794 36.8614 44.85 36.4714C44.9191 36.3137 44.847 36.1296 44.6893 36.0605C44.5315 35.9913 44.3472 36.0634 44.2782 36.2211ZM15.4433 35.6711C15.2948 35.293 15.1606 34.9075 15.0413 34.5156C14.9913 34.3508 14.8168 34.2577 14.652 34.3078C14.4872 34.3579 14.394 34.5324 14.4442 34.6972C14.5681 35.105 14.7077 35.5059 14.8623 35.8993C14.9252 36.0598 15.1065 36.1387 15.2669 36.0758C15.4272 36.0129 15.5062 35.8314 15.4433 35.6711ZM45.0789 33.911C44.9757 34.3077 44.8572 34.6981 44.7242 35.0819C44.6678 35.2446 44.7541 35.4226 44.9168 35.4791C45.0797 35.5354 45.2577 35.4491 45.314 35.2864C45.4524 34.8872 45.5757 34.4809 45.6831 34.0683C45.7264 33.9016 45.6263 33.7309 45.4596 33.6876C45.2929 33.6442 45.1224 33.7443 45.0789 33.911ZM14.732 33.332C14.6451 32.9359 14.5732 32.5341 14.517 32.1275C14.4935 31.9568 14.3357 31.8374 14.1651 31.861C13.9944 31.8846 13.875 32.0422 13.8987 32.2129C13.9571 32.6359 14.0319 33.0538 14.1224 33.4657C14.1592 33.634 14.3258 33.7407 14.4941 33.7037C14.6623 33.6668 14.769 33.5002 14.732 33.332ZM45.5065 31.5035C45.4666 31.9123 45.4109 32.3167 45.3402 32.7158C45.3101 32.8854 45.4234 33.0475 45.5929 33.0776C45.7625 33.1077 45.9246 32.9944 45.9547 32.8248C46.0284 32.4097 46.0863 31.9893 46.1278 31.564C46.1444 31.3926 46.0189 31.2398 45.8473 31.2231C45.6759 31.2064 45.5231 31.3321 45.5065 31.5035ZM14.4436 28.4466C14.4834 28.0376 14.539 27.6334 14.6099 27.2343C14.64 27.0647 14.5267 26.9025 14.3571 26.8725C14.1875 26.8424 14.0254 26.9556 13.9953 27.1252C13.9216 27.5402 13.8637 27.9607 13.8223 28.386C13.8055 28.5574 13.9312 28.7102 14.1026 28.7269C14.2741 28.7437 14.4268 28.618 14.4436 28.4466ZM45.218 26.6181C45.305 27.0142 45.3769 27.4159 45.4331 27.8226C45.4566 27.9932 45.6142 28.1126 45.7848 28.089C45.9555 28.0654 46.0749 27.9078 46.0514 27.7372C45.9929 27.3141 45.9182 26.8963 45.8277 26.4842C45.7907 26.3159 45.6241 26.2094 45.4559 26.2463C45.2876 26.2833 45.1811 26.4499 45.218 26.6181ZM14.871 26.0389C14.9744 25.6424 15.0927 25.2518 15.2257 24.8681C15.2822 24.7053 15.1959 24.5275 15.0331 24.471C14.8704 24.4145 14.6924 24.501 14.6359 24.6637C14.4977 25.0629 14.3744 25.4692 14.2669 25.8818C14.2237 26.0485 14.3237 26.219 14.4905 26.2625C14.6571 26.3057 14.8277 26.2057 14.871 26.0389ZM44.5068 24.2789C44.6553 24.6571 44.7895 25.0425 44.9086 25.4344C44.9588 25.5992 45.1332 25.6923 45.2981 25.6422C45.4629 25.592 45.5559 25.4177 45.5059 25.2529C45.3819 24.8451 45.2422 24.4442 45.0878 24.0506C45.0248 23.8903 44.8434 23.8112 44.6831 23.8743C44.5228 23.9372 44.4437 24.1185 44.5068 24.2789ZM15.6719 23.7288C15.8359 23.3541 16.0144 22.9869 16.2063 22.6281C16.2876 22.4764 16.2302 22.287 16.0783 22.2058C15.9266 22.1245 15.7372 22.1819 15.656 22.3336C15.4563 22.7068 15.2707 23.0887 15.1001 23.4785C15.031 23.6362 15.1029 23.8205 15.2608 23.8896C15.4186 23.9586 15.6028 23.8867 15.6719 23.7288ZM43.4364 22.0803C43.6428 22.4311 43.8359 22.7908 44.015 23.1585C44.0903 23.3134 44.2773 23.378 44.4322 23.3026C44.5869 23.2271 44.6515 23.0401 44.5762 22.8854C44.3899 22.5029 44.1892 22.1288 43.9745 21.7639C43.8872 21.6154 43.6957 21.5657 43.5472 21.653C43.3988 21.7404 43.349 21.9318 43.4364 22.0803ZM16.8256 21.5729C17.046 21.2287 17.2795 20.8939 17.5254 20.569C17.6293 20.4316 17.6022 20.2356 17.465 20.1317C17.3276 20.0278 17.1317 20.0548 17.0277 20.1922C16.772 20.5302 16.5291 20.8783 16.2999 21.2361C16.207 21.3811 16.2493 21.5744 16.3944 21.6672C16.5395 21.7601 16.7326 21.7179 16.8256 21.5729ZM42.0355 20.0758C42.2944 20.3907 42.5413 20.7159 42.7753 21.0506C42.8738 21.1919 43.0686 21.2263 43.2099 21.1278C43.351 21.029 43.3854 20.8343 43.2869 20.693C43.0436 20.345 42.7869 20.0067 42.5177 19.6794C42.4084 19.5463 42.2115 19.527 42.0785 19.6364C41.9453 19.7459 41.9261 19.9428 42.0355 20.0758ZM20.0758 17.9144C20.3907 17.6556 20.7159 17.4088 21.0506 17.1748C21.1919 17.0761 21.2263 16.8813 21.1278 16.7402C21.029 16.5991 20.8343 16.5645 20.693 16.6632C20.345 16.9065 20.0067 17.1631 19.6794 17.4323C19.5463 17.5417 19.527 17.7386 19.6364 17.8716C19.7459 18.0046 19.9428 18.024 20.0758 17.9144ZM38.3772 16.8256C38.7213 17.046 39.0562 17.2795 39.3811 17.5254C39.5185 17.6293 39.7143 17.6022 39.8183 17.465C39.9222 17.3276 39.8951 17.1317 39.7577 17.0277C39.4199 16.772 39.0717 16.5291 38.714 16.2999C38.569 16.207 38.3757 16.2493 38.2828 16.3944C38.1899 16.5395 38.2322 16.7326 38.3772 16.8256ZM22.0803 16.5135C22.4311 16.3072 22.7908 16.1141 23.1585 15.9351C23.3134 15.8598 23.378 15.6728 23.3026 15.5179C23.2271 15.363 23.0401 15.2986 22.8854 15.3739C22.5029 15.5601 22.1288 15.7609 21.7639 15.9756C21.6154 16.0629 21.5657 16.2544 21.653 16.4028C21.7404 16.5513 21.9318 16.6009 22.0803 16.5135ZM36.2211 15.6719C36.5959 15.8359 36.9631 16.0144 37.3218 16.2063C37.4737 16.2876 37.6631 16.2302 37.7442 16.0783C37.8256 15.9266 37.7682 15.7372 37.6163 15.656C37.2431 15.4563 36.8614 15.2707 36.4714 15.1001C36.3137 15.031 36.1296 15.1029 36.0605 15.2608C35.9913 15.4186 36.0634 15.6028 36.2211 15.6719ZM24.2789 15.4433C24.6571 15.2948 25.0425 15.1606 25.4344 15.0413C25.5992 14.9913 25.6923 14.8168 25.6422 14.652C25.592 14.4872 25.4177 14.394 25.2529 14.4442C24.8451 14.5681 24.4442 14.7077 24.0506 14.8623C23.8903 14.9252 23.8112 15.1065 23.8743 15.2669C23.9372 15.4272 24.1185 15.5062 24.2789 15.4433ZM33.911 14.871C34.3077 14.9744 34.6981 15.0927 35.0819 15.2257C35.2446 15.2822 35.4226 15.1959 35.4791 15.0331C35.5354 14.8704 35.4491 14.6924 35.2864 14.6359C34.8872 14.4977 34.4809 14.3744 34.0683 14.2669C33.9016 14.2237 33.7309 14.3237 33.6876 14.4905C33.6442 14.6571 33.7443 14.8277 33.911 14.871ZM26.6181 14.732C27.0142 14.6451 27.4159 14.5732 27.8226 14.517C27.9932 14.4935 28.1126 14.3357 28.089 14.1651C28.0654 13.9944 27.9078 13.875 27.7372 13.8987C27.3141 13.9571 26.8963 14.0319 26.4842 14.1224C26.3159 14.1592 26.2094 14.3258 26.2463 14.4941C26.2833 14.6623 26.4499 14.769 26.6181 14.732ZM31.5035 14.4436C31.9123 14.4834 32.3167 14.539 32.7158 14.6099C32.8854 14.64 33.0475 14.5267 33.0776 14.3571C33.1077 14.1875 32.9944 14.0254 32.8248 13.9953C32.4097 13.9216 31.9893 13.8637 31.564 13.8223C31.3926 13.8055 31.2398 13.9312 31.2231 14.1026C31.2064 14.2741 31.3321 14.4268 31.5035 14.4436Z" fill="white"/>
<path fill-rule="evenodd" clip-rule="evenodd" d="M28.8083 35.0801V35.1628C28.8083 35.8067 29.331 36.3295 29.9749 36.3295C30.619 36.3295 31.1417 35.8067 31.1417 35.1628V35.0425C32.3258 34.5616 33.1616 33.3995 33.1616 32.0436C33.1616 31.1832 32.9833 30.4208 32.5358 29.8564C32.0722 29.2716 31.3029 28.8083 29.9262 28.8083C29.6205 28.8083 29.401 28.7979 29.2639 28.6827C29.1884 28.6193 29.1611 28.5289 29.1441 28.4298C29.1168 28.271 29.1217 28.0912 29.1217 27.9063C29.1217 27.4085 29.5259 27.0045 30.0236 27.0045C30.426 27.0045 30.7673 27.2683 30.8834 27.6325C31.079 28.246 31.736 28.5851 32.3495 28.3895C32.9629 28.1938 33.3021 27.5369 33.1065 26.9234C32.8034 25.9733 32.073 25.2133 31.1417 24.8699V24.7871C31.1417 24.1432 30.619 23.6205 29.9749 23.6205C29.331 23.6205 28.8083 24.1432 28.8083 24.7871L28.8085 24.9074C27.6242 25.3884 26.7883 26.5505 26.7883 27.9063C26.7883 28.9731 27.0647 29.8822 27.7622 30.4686C28.2229 30.856 28.8984 31.1417 29.9262 31.1417C30.1554 31.1417 30.3427 31.1526 30.4919 31.1904C30.5851 31.214 30.659 31.2451 30.7074 31.3059C30.7674 31.3818 30.7923 31.4758 30.8076 31.5776C30.8292 31.7219 30.8283 31.8801 30.8283 32.0436C30.8283 32.5414 30.4241 32.9456 29.9262 32.9456C29.524 32.9456 29.1827 32.6816 29.0666 32.3176C28.871 31.7041 28.214 31.3649 27.6005 31.5606C26.9871 31.7562 26.6477 32.4131 26.8435 33.0266C27.1465 33.9767 27.8769 34.7367 28.8083 35.0801Z" fill="white"/>
<path fill-rule="evenodd" clip-rule="evenodd" d="M29.975 17.8027C23.257 17.8027 17.8027 23.257 17.8027 29.975C17.8027 36.6931 23.257 42.1473 29.975 42.1473C36.6931 42.1473 42.1473 36.6931 42.1473 29.975C42.1473 23.257 36.6931 17.8027 29.975 17.8027ZM29.975 20.9317C34.9663 20.9317 39.0185 24.9839 39.0185 29.975C39.0185 34.9663 34.9663 39.0185 29.975 39.0185C24.9839 39.0185 20.9317 34.9663 20.9317 29.975C20.9317 24.9839 24.9839 20.9317 29.975 20.9317Z" fill="white"/>
<path fill-rule="evenodd" clip-rule="evenodd" d="M29.9748 47.7652C31.0084 47.7652 31.8475 46.9261 31.8475 45.8926C31.8475 44.859 31.0084 44.0199 29.9748 44.0199C28.9413 44.0199 28.1022 44.859 28.1022 45.8926C28.1022 46.9261 28.9413 47.7652 29.9748 47.7652ZM17.3952 42.5546C18.1261 43.2855 19.3128 43.2855 20.0436 42.5546C20.7744 41.8238 20.7744 40.6371 20.0436 39.9063C19.3128 39.1754 18.1261 39.1754 17.3952 39.9063C16.6644 40.6371 16.6644 41.8238 17.3952 42.5546ZM42.5545 42.5546C43.2854 41.8238 43.2854 40.6371 42.5545 39.9063C41.8237 39.1754 40.637 39.1754 39.9062 39.9063C39.1753 40.6371 39.1753 41.8238 39.9062 42.5546C40.637 43.2855 41.8237 43.2855 42.5545 42.5546ZM47.7651 29.975C47.7651 28.9414 46.926 28.1023 45.8924 28.1023C44.8589 28.1023 44.0198 28.9414 44.0198 29.975C44.0198 31.0085 44.8589 31.8476 45.8924 31.8476C46.926 31.8476 47.7651 31.0085 47.7651 29.975ZM12.1846 29.975C12.1846 31.0085 13.0237 31.8476 14.0572 31.8476C15.0908 31.8476 15.9299 31.0085 15.9299 29.975C15.9299 28.9414 15.0908 28.1023 14.0572 28.1023C13.0237 28.1023 12.1846 28.9414 12.1846 29.975ZM42.5545 17.3953C41.8237 16.6645 40.637 16.6645 39.9062 17.3953C39.1753 18.1263 39.1753 19.3129 39.9062 20.0437C40.637 20.7745 41.8237 20.7745 42.5545 20.0437C43.2854 19.3129 43.2854 18.1263 42.5545 17.3955V17.3953ZM17.3952 17.3955C16.6644 18.1263 16.6644 19.3129 17.3952 20.0437C18.1261 20.7745 19.3128 20.7745 20.0436 20.0437C20.7744 19.3129 20.7744 18.1263 20.0436 17.3953C19.3128 16.6645 18.1261 16.6645 17.3954 17.3953L17.3952 17.3955ZM29.9748 12.1847C28.9413 12.1847 28.1022 13.0238 28.1022 14.0574C28.1022 15.0909 28.9413 15.93 29.9748 15.93C31.0084 15.93 31.8475 15.0909 31.8475 14.0574C31.8475 13.0238 31.0084 12.1847 29.9748 12.1847Z" fill="white"/>
</svg>
