<svg width="64" height="64" viewBox="0 0 64 64" fill="none" xmlns="http://www.w3.org/2000/svg">
<rect width="64" height="64" rx="15" fill="#00ADEE"/>
<path fill-rule="evenodd" clip-rule="evenodd" d="M18.5088 29.6304V39.3128C18.5086 39.3765 18.4835 39.4376 18.439 39.4826C18.3945 39.5277 18.3342 39.5531 18.2712 39.5533H14.5304C14.4675 39.5531 14.4072 39.5277 14.3627 39.4826C14.3182 39.4376 14.2931 39.3765 14.2929 39.3128V29.6304H13.0378C12.9908 29.6305 12.9447 29.6164 12.9056 29.59C12.8664 29.5636 12.8359 29.526 12.8179 29.4819C12.7999 29.4379 12.7952 29.3895 12.8044 29.3427C12.8137 29.296 12.8364 29.2531 12.8697 29.2195L16.2327 25.8148C16.2774 25.7698 16.3378 25.7445 16.4008 25.7445C16.4638 25.7445 16.5243 25.7698 16.5689 25.8148L19.932 29.2195C19.9654 29.2531 19.9881 29.296 19.9973 29.3427C20.0066 29.3895 20.0019 29.4379 19.9839 29.4819C19.9659 29.526 19.9353 29.5636 19.8962 29.59C19.857 29.6164 19.811 29.6305 19.7639 29.6304H18.5088ZM29.6277 47.1975C29.5748 47.1472 29.5322 47.0867 29.5024 47.0197C29.4726 46.9527 29.4561 46.8804 29.4539 46.8069C29.4517 46.7334 29.4638 46.6602 29.4895 46.5915C29.5153 46.5228 29.5541 46.4598 29.6039 46.4063C29.6536 46.3528 29.7133 46.3097 29.7795 46.2795C29.8457 46.2493 29.9171 46.2326 29.9897 46.2304C30.0623 46.2281 30.1346 46.2404 30.2025 46.2664C30.2704 46.2925 30.3325 46.3318 30.3854 46.3822C30.5359 46.5256 30.6191 46.6124 30.8327 46.6124C31.0212 46.6124 31.2658 46.4996 31.2658 46.2809C31.2658 46.0621 31.0212 45.9494 30.8327 45.9494C30.0317 45.9494 29.291 45.3389 29.291 44.4957C29.291 43.8712 29.7056 43.3533 30.2707 43.1428L30.2689 43.0659C30.2654 42.9177 30.3203 42.7741 30.4214 42.6668C30.5225 42.5596 30.6615 42.4973 30.808 42.4938C30.9544 42.4903 31.0962 42.5459 31.2021 42.6482C31.3081 42.7506 31.3696 42.8914 31.373 43.0396L31.3756 43.1486C31.6711 43.2514 31.9966 43.4418 32.1698 43.7087C32.2489 43.8325 32.2765 43.983 32.2464 44.1273C32.2164 44.2716 32.1313 44.398 32.0095 44.479C31.8878 44.56 31.7393 44.589 31.5966 44.5597C31.4538 44.5303 31.3283 44.445 31.2474 44.3224C31.213 44.2694 31.0253 44.1642 30.8327 44.162C30.6477 44.162 30.3972 44.2793 30.3972 44.4957C30.3972 44.7145 30.644 44.8273 30.8327 44.8273C31.6348 44.8273 32.3743 45.4386 32.3743 46.2809C32.3743 46.904 31.959 47.4233 31.3954 47.6335L31.3964 47.6778C31.3999 47.8261 31.345 47.9696 31.244 48.0769C31.1429 48.1842 31.0038 48.2464 30.8574 48.2499C30.711 48.2534 30.5692 48.1979 30.4632 48.0956C30.3572 47.9932 30.2958 47.8524 30.2923 47.7042L30.2909 47.6447C30.0411 47.5448 29.8151 47.3924 29.6277 47.1975ZM30.8331 40.8852C29.9566 40.8852 29.0997 41.1483 28.3709 41.6413C27.6421 42.1343 27.0741 42.8351 26.7386 43.6549C26.4032 44.4747 26.3154 45.3768 26.4864 46.2472C26.6574 47.1175 27.0795 47.9169 27.6993 48.5444C28.3191 49.1719 29.1088 49.5992 29.9685 49.7723C30.8282 49.9454 31.7193 49.8566 32.5291 49.517C33.3389 49.1774 34.031 48.6024 34.518 47.8645C35.005 47.1267 35.2649 46.2592 35.2649 45.3719C35.2649 44.1819 34.7979 43.0408 33.9668 42.1994C33.1357 41.3579 32.0085 40.8852 30.8331 40.8852ZM30.8331 42.0074C30.1758 42.0074 29.5333 42.2047 28.9868 42.5744C28.4402 42.9441 28.0143 43.4696 27.7627 44.0843C27.5112 44.6991 27.4454 45.3756 27.5736 46.0282C27.7019 46.6809 28.0184 47.2804 28.4831 47.7509C28.9479 48.2214 29.5401 48.5419 30.1847 48.6717C30.8294 48.8015 31.4976 48.7349 32.1049 48.4802C32.7121 48.2256 33.2312 47.7943 33.5963 47.2411C33.9615 46.6878 34.1564 46.0373 34.1564 45.3719C34.1564 44.93 34.0705 44.4925 33.9035 44.0843C33.7365 43.6761 33.4917 43.3052 33.1831 42.9928C32.8745 42.6804 32.5081 42.4325 32.1049 42.2635C31.7017 42.0944 31.2695 42.0074 30.8331 42.0074ZM35.7393 28.6329V24.5203C35.7363 24.0905 35.5655 23.6792 35.2642 23.3763C34.9629 23.0734 34.5555 22.9034 34.1309 22.9034C33.7063 22.9034 33.2989 23.0734 32.9976 23.3763C32.6962 23.6792 32.5255 24.0905 32.5225 24.5203V27.4343C33.0518 27.6718 33.4925 28.0739 33.7805 28.5823C34.0686 29.0906 34.189 29.6787 34.1243 30.2611C34.5516 30.2615 34.9616 30.0902 35.2644 29.785C35.5672 29.4798 35.7377 29.0655 35.7393 28.6329ZM31.425 32.6998H28.3186C29.3136 33.5352 29.782 34.6533 29.7628 35.9677C29.7621 36.0413 29.7471 36.1139 29.7186 36.1815C29.6902 36.2491 29.6488 36.3104 29.5969 36.3618C29.545 36.4133 29.4836 36.4538 29.4162 36.4812C29.3489 36.5086 29.2768 36.5222 29.2042 36.5213C29.1316 36.5205 29.0599 36.5051 28.9931 36.4762C28.9264 36.4472 28.866 36.4052 28.8153 36.3525C28.7646 36.2999 28.7247 36.2376 28.6978 36.1694C28.6709 36.1011 28.6576 36.0281 28.6586 35.9546C28.6849 34.1577 27.5193 33.1896 25.9307 32.6878C25.7966 32.6592 25.6776 32.5813 25.5969 32.4691C25.5162 32.3569 25.4794 32.2185 25.4936 32.0804C25.5078 31.9424 25.5721 31.8146 25.674 31.7217C25.7759 31.6288 25.9081 31.5775 26.0452 31.5776H31.425C31.8516 31.5776 32.2607 31.406 32.5623 31.1007C32.8639 30.7953 33.0334 30.3812 33.0334 29.9493C33.0334 29.5175 32.8639 29.1033 32.5623 28.798C32.2607 28.4926 31.8516 28.3211 31.425 28.3211H23.4617C23.0354 28.3226 22.627 28.4946 22.3253 28.7995C22.0237 29.1045 21.8533 29.5177 21.8512 29.9493L21.8517 35.3844C21.838 37.2699 22.9911 38.0852 24.5698 38.6532C24.6923 38.6814 24.8017 38.751 24.88 38.8504C24.9583 38.9498 25.001 39.0732 25.0009 39.2004V52.2667H36.648V39.6144C36.648 39.4656 36.7064 39.3229 36.8103 39.2177C36.9143 39.1125 37.0552 39.0533 37.2022 39.0533C38.6766 39.0533 40.0414 37.9963 40.0414 36.5331C40.0414 35.0764 40.0572 33.6212 40.0617 32.165C39.7123 32.4254 39.3063 32.5972 38.8778 32.6659C38.4492 32.7346 38.0107 32.6983 37.5989 32.56C37.1871 32.4216 36.8141 32.1853 36.5111 31.8709C36.2082 31.5564 35.9842 31.173 35.8579 30.7528C35.5688 30.9961 35.2325 31.1755 34.8708 31.2794C34.5091 31.3832 34.1298 31.4091 33.7576 31.3555C33.5167 31.7646 33.1752 32.1035 32.7663 32.3391C32.3575 32.5747 31.8955 32.699 31.425 32.6998ZM23.8722 27.1988H27.0889V21.8876C27.0889 21.4558 26.9194 21.0416 26.6178 20.7363C26.3162 20.4309 25.9071 20.2594 25.4805 20.2594C25.054 20.2594 24.6449 20.4309 24.3433 20.7363C24.0416 21.0416 23.8722 21.4558 23.8722 21.8876V27.1988ZM28.1973 27.1988H31.414V23.204C31.414 22.7721 31.2446 22.358 30.9429 22.0526C30.6413 21.7473 30.2322 21.5757 29.8057 21.5757C29.3791 21.5757 28.97 21.7473 28.6684 22.0526C28.3668 22.358 28.1973 22.7721 28.1973 23.204V27.1988ZM38.4561 24.2085C38.8821 24.2101 39.2903 24.3822 39.5915 24.6872C39.8928 24.9922 40.0628 25.4054 40.0644 25.8367V29.9493C40.0644 30.3811 39.895 30.7952 39.5933 31.1006C39.2917 31.406 38.8826 31.5775 38.4561 31.5775C38.0295 31.5775 37.6204 31.406 37.3188 31.1006C37.0172 30.7952 36.8477 30.3811 36.8477 29.9493V25.8367C36.8494 25.4054 37.0193 24.9922 37.3206 24.6872C37.6219 24.3822 38.03 24.2101 38.4561 24.2085ZM44.1527 18.2358C44.2566 18.1306 44.3976 18.0714 44.5446 18.0714C44.6916 18.0714 44.8326 18.1306 44.9365 18.2358C45.0405 18.341 45.0989 18.4838 45.0989 18.6326C45.0989 18.7814 45.0405 18.9241 44.9365 19.0294L42.1383 21.862C42.0344 21.9672 41.8934 22.0263 41.7464 22.0263C41.5994 22.0263 41.4584 21.9672 41.3545 21.862C41.2505 21.7567 41.1921 21.614 41.1921 21.4652C41.1921 21.3164 41.2505 21.1736 41.3545 21.0684L44.1527 18.2358ZM17.2789 19.7562C17.2274 19.7041 17.1866 19.6423 17.1588 19.5742C17.1309 19.5061 17.1166 19.4331 17.1166 19.3594C17.1166 19.2858 17.1309 19.2128 17.1588 19.1447C17.1866 19.0766 17.2274 19.0148 17.2789 18.9627C17.3304 18.9106 17.3915 18.8692 17.4587 18.841C17.526 18.8128 17.5981 18.7983 17.6708 18.7983C17.7436 18.7983 17.8157 18.8128 17.883 18.841C17.9502 18.8692 18.0113 18.9106 18.0628 18.9627L20.8609 21.7954C20.9649 21.9007 21.0233 22.0434 21.0233 22.1922C21.0233 22.341 20.9649 22.4838 20.8609 22.589C20.757 22.6942 20.616 22.7534 20.469 22.7534C20.322 22.7534 20.181 22.6942 20.077 22.589L17.2789 19.7562ZM30.4047 13.3612C30.4047 13.2123 30.4631 13.0696 30.5671 12.9644C30.671 12.8592 30.812 12.8 30.959 12.8C31.106 12.8 31.247 12.8592 31.3509 12.9644C31.4548 13.0696 31.5132 13.2123 31.5132 13.3612V17.3675C31.5132 17.5163 31.4548 17.6591 31.3509 17.7643C31.247 17.8695 31.106 17.9286 30.959 17.9286C30.812 17.9286 30.671 17.8695 30.5671 17.7643C30.4631 17.6591 30.4047 17.5163 30.4047 17.3675V13.3612ZM48.6401 29.6304V39.3128C48.64 39.3765 48.6149 39.4376 48.5704 39.4826C48.5259 39.5277 48.4655 39.5531 48.4026 39.5533H44.6623C44.5993 39.5531 44.539 39.5277 44.4945 39.4826C44.45 39.4376 44.4249 39.3765 44.4247 39.3128V29.6304H43.169C43.1219 29.6305 43.0759 29.6164 43.0367 29.59C42.9975 29.5636 42.967 29.526 42.949 29.4819C42.931 29.4379 42.9263 29.3895 42.9355 29.3427C42.9448 29.296 42.9675 29.2531 43.0009 29.2195L46.3639 25.8148C46.4086 25.7698 46.469 25.7445 46.532 25.7445C46.595 25.7445 46.6555 25.7698 46.7001 25.8148L50.0632 29.2195C50.0966 29.2531 50.1193 29.296 50.1285 29.3427C50.1378 29.3895 50.1331 29.4379 50.1151 29.4819C50.0971 29.526 50.0665 29.5636 50.0274 29.59C49.9882 29.6164 49.9422 29.6305 49.8951 29.6304H48.6401Z" fill="white"/>
</svg>
