<svg width="64" height="64" viewBox="0 0 64 64" fill="none" xmlns="http://www.w3.org/2000/svg">
<rect width="64" height="64" rx="15" fill="#3265A8"/>
<path d="M43.6117 17.9667C41.4966 14.7261 37.946 12.8 34.0604 12.8C29.8713 12.8 26.0834 15.0437 24.0687 18.6859C22.9653 18.208 21.793 17.9661 20.5774 17.9661C15.7008 17.9661 11.7334 21.935 11.7334 26.8133C11.7334 30.7007 14.3352 34.1869 18.0604 35.291C18.3063 35.364 18.5657 35.2232 18.6385 34.977C18.7115 34.7308 18.5712 34.4719 18.3248 34.3989C14.9914 33.411 12.6636 30.2915 12.6636 26.8132C12.6636 22.4479 16.2137 18.8963 20.5774 18.8963C21.8011 18.8963 22.9753 19.17 24.0675 19.7104C24.2968 19.8236 24.5742 19.7312 24.689 19.5026C26.4831 15.9422 30.0741 13.7304 34.0604 13.7304C37.7113 13.7304 41.0402 15.5819 42.965 18.6829C43.0606 18.8367 43.2385 18.92 43.4159 18.8994C43.4493 18.8955 43.4789 18.8966 43.5122 18.8964C47.8758 18.8964 51.426 22.448 51.426 26.8133C51.426 30.2965 49.0931 33.4168 45.7529 34.402C45.5065 34.4747 45.3657 34.7332 45.4383 34.9795C45.4981 35.1821 45.6834 35.3132 45.8843 35.3132C45.9278 35.3132 45.9722 35.3071 46.016 35.2941C49.7491 34.1933 52.3562 30.7059 52.3562 26.8133C52.3562 21.9682 48.4426 18.0202 43.6117 17.9667Z" fill="white"/>
<path d="M41.1089 29.0046C36.1225 24.0151 27.9855 23.9965 22.9775 29.0046C20.5556 31.4233 19.2222 34.6453 19.2222 38.0688C19.2222 41.4953 20.5556 44.7142 22.9775 47.136C27.9545 52.1131 36.0915 52.1565 41.1089 47.136C43.5339 44.7142 44.8673 41.4953 44.8673 38.0688C44.8673 34.6453 43.5339 31.4264 41.1089 29.0046ZM32.5099 26.195C35.2512 26.3005 37.9645 27.3517 40.1135 29.3394L38.6343 30.8217C36.9412 29.2773 34.7953 28.3905 32.5099 28.2819V26.195ZM31.5796 26.195V28.282C29.291 28.3905 27.1452 29.2774 25.452 30.8217L23.9729 29.3395C26.1218 27.3518 28.8353 26.3005 31.5796 26.195ZM31.5796 49.9455C28.8352 49.837 26.1218 48.7888 23.9729 46.798L25.452 45.3189C27.1947 46.9035 29.3717 47.7469 31.5796 47.8523V49.9455ZM32.5099 49.9455V47.8523C34.7147 47.7468 36.8947 46.9034 38.6343 45.3189L40.1166 46.798C37.9645 48.7889 35.2512 49.837 32.5099 49.9455ZM38.3149 44.3389C34.8573 47.7965 29.2322 47.7965 25.7746 44.3389C22.317 40.8813 22.317 35.2561 25.7746 31.7985C27.4491 30.124 29.6756 29.2031 32.0447 29.2031C33.2293 29.2031 34.3767 29.4325 35.4403 29.8729C36.504 30.3133 37.4777 30.9613 38.3149 31.7986C41.7725 35.2562 41.7725 40.8813 38.3149 44.3389Z" fill="white"/>
<path d="M35.6667 37.3029L32.4541 31.2529C32.3735 31.1009 32.2153 31.0049 32.0448 31.0049C31.8712 31.0049 31.716 31.0979 31.6324 31.2499L28.4228 37.2409C28.3143 37.4425 28.3763 37.7122 28.5686 37.8425L31.6882 39.9853C31.7657 40.038 31.8587 40.0659 31.9487 40.0659C32.0355 40.0659 32.1223 40.041 32.1967 39.9945L35.5024 37.9138C35.707 37.7836 35.7753 37.5076 35.6667 37.3029ZM32.0417 32.4592L34.0263 36.1959L32.1967 35.0454C32.1223 34.9989 32.0355 34.9741 31.9487 34.9741C31.8618 34.9741 31.775 34.9989 31.6975 35.0485L30.0974 36.0842L32.0417 32.4592ZM31.9611 39.0456L29.6726 37.4703L31.9549 35.9911L34.383 37.5199L31.9611 39.0456Z" fill="white"/>
<path d="M35.5926 39.2812C35.4468 39.1262 35.2112 39.092 35.0251 39.1975L31.9583 40.9433L29.0743 39.2036C28.8913 39.092 28.6557 39.1199 28.5038 39.2719C28.3518 39.4269 28.3239 39.6626 28.4386 39.8456L31.5551 44.9126C31.6389 45.0491 31.7846 45.1328 31.9459 45.1359H31.9489C32.1071 45.1359 32.2528 45.0553 32.3397 44.925L35.6453 39.8549C35.7631 39.6751 35.7414 39.4393 35.5926 39.2812ZM31.9614 43.7994L30.2311 40.9868L31.7102 41.8799C31.856 41.9667 32.0359 41.9698 32.1816 41.886L33.8189 40.9526L31.9614 43.7994Z" fill="white"/>
</svg>
