<svg width="64" height="64" viewBox="0 0 64 64" fill="none" xmlns="http://www.w3.org/2000/svg">
<rect width="64" height="64" rx="15" fill="#34A3CD"/>
<g clip-path="url(#clip0_6085_1452)">
<path d="M22.668 24.6992C23.0237 24.6992 23.3125 24.4104 23.3125 24.0547C23.3125 23.6989 23.0237 23.4102 22.668 23.4102C22.3122 23.4102 22.0234 23.6989 22.0234 24.0547C22.0234 24.4104 22.3122 24.6992 22.668 24.6992Z" fill="white"/>
<path d="M25.448 23.9776C25.1207 23.8379 24.7421 23.9895 24.6021 24.3168C24.4621 24.6441 24.6136 25.0227 24.9409 25.163C27.084 26.0799 28.4688 28.1749 28.4688 30.5C28.4688 33.6985 25.8665 36.3008 22.668 36.3008C19.4695 36.3008 16.8672 33.6985 16.8672 30.5C16.8672 28.1749 18.2519 26.0799 20.395 25.163C20.7223 25.0227 20.8739 24.6441 20.7339 24.3168C20.5939 23.9895 20.2147 23.8377 19.8879 23.9776C17.2698 25.098 15.5781 27.658 15.5781 30.5C15.5781 34.4092 18.7587 37.5898 22.668 37.5898C26.5772 37.5898 29.7578 34.4092 29.7578 30.5C29.7578 27.658 28.0662 25.098 25.448 23.9776Z" fill="white"/>
<path d="M22.7326 31.0988C23.0881 31.0988 23.3771 31.388 23.3771 31.7433C23.3771 32.0988 23.0881 32.3878 22.7326 32.3878C22.4572 32.3878 22.1601 32.2146 21.8957 31.9004C21.6666 31.6277 21.26 31.5927 20.9876 31.8218C20.7152 32.0507 20.6799 32.4573 20.909 32.7297C21.2534 33.1396 21.6588 33.4254 22.0881 33.5691V34.3214C22.0881 34.6774 22.3766 34.9659 22.7326 34.9659C23.0886 34.9659 23.3771 34.6774 23.3771 34.3214V33.5661C24.1274 33.3 24.6662 32.5837 24.6662 31.7433C24.6662 30.677 23.7988 29.8097 22.7326 29.8097C22.3771 29.8097 22.0881 29.5207 22.0881 29.1652C22.0881 28.8099 22.3771 28.5206 22.7326 28.5206C22.961 28.5206 23.2019 28.6372 23.4297 28.8575C23.6855 29.1052 24.0934 29.0984 24.3412 28.8426C24.5886 28.5868 24.5818 28.1787 24.326 27.9312C23.999 27.6148 23.6717 27.4355 23.3771 27.3378V26.587C23.3771 26.231 23.0886 25.9425 22.7326 25.9425C22.3766 25.9425 22.0881 26.231 22.0881 26.587V27.3426C21.3378 27.6085 20.799 28.325 20.799 29.1652C20.799 30.2314 21.6663 31.0988 22.7326 31.0988Z" fill="white"/>
<path d="M40.1992 25.6016C43.3977 25.6016 46 22.9993 46 19.8008C46 16.6023 43.3977 14 40.1992 14C37.0007 14 34.3984 16.6023 34.3984 19.8008C34.3984 20.6581 34.5875 21.499 34.9483 22.2666L30.5466 24.9032C28.7243 22.3462 25.8002 20.832 22.668 20.832C17.337 20.832 13 25.169 13 30.5C13 35.831 17.337 40.168 22.668 40.168C25.7952 40.168 28.7215 38.6579 30.5466 36.0968L34.9483 38.7334C34.5875 39.501 34.3984 40.3419 34.3984 41.1992C34.3984 44.3977 37.0007 47 40.1992 47C43.3977 47 46 44.3977 46 41.1992C46 38.0007 43.3977 35.3984 40.1992 35.3984C38.386 35.3984 36.7177 36.2242 35.6228 37.6347L31.2234 34.9996C31.9527 33.6174 32.3359 32.0748 32.3359 30.5C32.3359 28.9252 31.9527 27.3826 31.2234 26.0004L35.6228 23.3653C36.7177 24.7758 38.386 25.6016 40.1992 25.6016ZM40.1992 15.2891C42.687 15.2891 44.7109 17.313 44.7109 19.8008C44.7109 22.2885 42.687 24.3125 40.1992 24.3125C37.6526 24.3125 35.6875 22.244 35.6875 19.8008C35.6875 17.313 37.7115 15.2891 40.1992 15.2891ZM22.668 38.8789C18.0477 38.8789 14.2891 35.1202 14.2891 30.5C14.2891 25.8798 18.0477 22.1211 22.668 22.1211C25.5925 22.1211 28.2595 23.6123 29.8024 26.1106C30.6166 27.4277 31.0469 28.9456 31.0469 30.5C31.0469 32.0544 30.6166 33.5723 29.8024 34.8894V34.8896C28.2595 37.3877 25.5925 38.8789 22.668 38.8789ZM40.1992 36.6875C42.687 36.6875 44.7109 38.7115 44.7109 41.1992C44.7109 43.687 42.687 45.7109 40.1992 45.7109C37.7115 45.7109 35.6875 43.687 35.6875 41.1992C35.6875 38.7515 37.6571 36.6875 40.1992 36.6875Z" fill="white"/>
</g>
<defs>
<clipPath id="clip0_6085_1452">
<rect width="33" height="33" fill="white" transform="translate(13 14)"/>
</clipPath>
</defs>
</svg>
