<svg width="94" height="91" viewBox="0 0 94 91" fill="none" xmlns="http://www.w3.org/2000/svg">
<g clip-path="url(#clip0_6125_156)">
<path d="M85.2879 54.595C85.2933 60.0399 84.0706 65.4152 81.7116 70.3174C79.3527 75.2196 75.9188 79.5211 71.6679 82.899C71.5596 82.9861 71.4513 83.0731 71.3429 83.1578C71.3213 83.1741 71.2997 83.1931 71.2779 83.2094C71.1723 83.2911 71.0667 83.3754 70.9584 83.457C65.6411 87.4912 59.3076 89.9526 52.6721 90.5636C52.5556 90.5745 52.4364 90.5854 52.3172 90.5963C52.2631 90.599 52.2116 90.6045 52.1574 90.6072H52.1548C52.0329 90.6181 51.911 90.6262 51.7891 90.6317C50.9739 90.6888 50.156 90.7187 49.33 90.7187C43.4151 90.7275 37.5903 89.2636 32.3762 86.458L32.3707 86.4553L32.1351 84.7439L29.7738 83.669L30.2857 85.2388C23.012 80.6708 17.5995 73.6454 15.0218 65.4263C14.9595 65.2304 14.8999 65.0318 14.8403 64.8331C14.8322 64.8032 14.8241 64.776 14.816 64.7461C14.7563 64.5529 14.7023 64.3543 14.6481 64.1557C13.0428 58.2377 12.9542 52.0079 14.3905 46.0463C14.4229 45.8994 14.4609 45.7525 14.4987 45.6056C15.9433 39.9793 18.7146 34.7849 22.5785 30.4613C26.4425 26.1378 31.2855 22.812 36.6986 20.765C37.1156 21.1895 37.5255 21.623 37.9281 22.0656C38.0879 22.2397 38.245 22.4138 38.4021 22.5907C40.0993 21.9051 41.8389 21.3307 43.6101 20.8712C44.1003 20.7432 44.5896 20.6271 45.078 20.5229L45.1755 18.7136C46.5547 18.554 47.9418 18.474 49.33 18.4742C57.1604 18.4614 64.7789 21.0286 71.018 25.7821C71.1615 25.8883 71.2997 25.997 71.4404 26.1086C77.0093 30.4719 81.1786 36.3833 83.4301 43.1079L82.8748 43.8262L83.6657 46.5878L84.2452 45.9239C84.9405 48.7613 85.2906 51.6729 85.2879 54.595Z" fill="url(#paint0_linear_6125_156)" style="mix-blend-mode:screen"/>
<g style="mix-blend-mode:multiply">
<path d="M16.0549 57.5242C16.2563 55.9802 16.6203 54.462 17.1409 52.9951C17.4105 56.554 18.4522 60.0105 20.1928 63.122C22.6911 67.9397 26.3091 72.4591 31.311 74.5231C38.4744 77.4789 46.5361 75.5979 53.3476 72.5755C60.1328 69.5645 67.1044 65.2567 72.2908 59.8905C75.2413 56.8022 77.248 52.9284 78.0728 48.7288C78.8976 44.5291 78.5059 40.18 76.9442 36.1973C80.5988 42.8957 83.7675 49.7283 83.14 57.3408C82.5535 64.4562 78.5887 71.0274 73.1923 75.6736C67.7959 80.3198 61.0653 83.1823 54.1714 84.9181C47.5445 86.5867 40.42 87.246 33.9668 84.9925C22.7267 81.0671 14.5155 69.3376 16.0549 57.5242Z" fill="url(#paint1_linear_6125_156)" style="mix-blend-mode:screen"/>
</g>
<path style="mix-blend-mode:screen" d="M57.5447 37.3807C54.8987 43.0751 49.5688 47.306 44.3579 50.5057C39.7511 53.338 34.7218 55.8574 29.3242 56.0914C26.364 56.222 23.1818 55.5391 21.1262 53.3924C19.2656 51.4498 18.6185 48.6147 18.6048 45.9186C18.5618 38.3385 22.8163 31.6127 28.7475 27.012C31.5135 24.863 34.6163 23.1913 37.9286 22.0656C38.0883 22.2397 38.2455 22.4139 38.4025 22.5908C40.0997 21.9052 41.8394 21.3308 43.6105 20.8712C49.91 20.542 57.152 23.6218 58.5628 30.3041C58.9914 32.7116 58.6343 35.1937 57.5447 37.3807Z" fill="url(#paint2_linear_6125_156)"/>
<path style="mix-blend-mode:screen" d="M55.3802 47.2637L55.5068 47.6882C52.7146 48.5563 50.1129 49.9517 47.8413 51.7995C45.5712 53.6322 43.6625 55.8754 42.2136 58.4133C41.4981 59.6794 40.9051 61.0116 40.4429 62.3914C39.965 63.7666 39.6051 65.1804 39.3671 66.6172C38.8969 69.5222 38.9734 72.49 39.5929 75.3666L39.65 75.6213L39.4105 75.7072C37.9804 76.193 36.4682 76.3872 34.9624 76.2787C33.4566 76.1701 31.9875 75.7608 30.6412 75.0748L30.8457 74.6819C33.3789 75.9217 36.293 76.1222 38.9707 75.2408C38.3384 72.3741 38.2306 69.4157 38.6525 66.5102C38.8477 65.0178 39.1903 63.5486 39.6752 62.1244C40.1749 60.7045 40.8091 59.3361 41.5692 58.038C41.7511 57.7281 41.6665 57.7677 41.8622 57.4672C40.5948 56.9729 39.3535 56.4137 38.1429 55.7921L37.145 55.2607L36.1618 54.7011C35.8403 54.5042 35.5161 54.3108 35.1894 54.1211C34.8682 53.9228 34.5486 53.7209 34.2369 53.5075C33.0115 52.6245 31.8382 51.6709 30.7227 50.6516C29.6137 49.6303 28.5585 48.5515 27.5615 47.4197L27.8872 47.1205C28.9083 48.2031 29.9943 49.2219 31.1391 50.1714C32.2773 51.1231 33.4656 52.0126 34.699 52.836C35.0076 53.0405 35.3083 53.2565 35.6074 53.4759C35.9119 53.6871 36.2194 53.8941 36.5299 54.0968L37.4744 54.6846L38.4352 55.2459C39.6327 55.9218 40.8647 56.5343 42.1259 57.0809C43.6171 54.9107 45.4195 52.9739 47.4745 51.3333C49.8347 49.4943 52.5158 48.1141 55.3802 47.2637ZM80.2395 64.4413C80.071 62.1589 79.5331 59.9193 78.647 57.8109L78.4981 57.4544L78.2056 57.6966C76.6356 59.0112 74.9143 60.132 73.0788 61.035L73.271 61.4349C75.0347 60.5973 76.7043 59.5731 78.2516 58.3795C78.9792 60.3388 79.4092 62.397 79.5272 64.4849C79.5856 65.5855 79.5449 66.6892 79.4054 67.7824C79.2573 68.8698 79.0154 69.9422 78.6822 70.9875C78.0041 73.0923 76.9465 75.0539 75.5623 76.7745C74.1805 78.5084 72.5011 79.9799 70.6034 81.1196L70.3761 81.2556L70.5224 81.4733C70.7772 81.8675 70.981 82.2926 71.129 82.7385C71.1805 82.8935 71.232 83.0513 71.278 83.2091C71.2997 83.1928 71.3213 83.1738 71.343 83.1574C71.4513 83.0731 71.5596 82.986 71.668 82.8987C71.6382 82.7952 71.6057 82.6919 71.5732 82.5885C71.4455 82.1832 71.2767 81.792 71.0695 81.4213C72.96 80.3034 74.6448 78.8668 76.05 77.1745C77.5127 75.4098 78.6566 73.4015 79.4299 71.2406C79.8104 70.1532 80.0613 69.0244 80.1774 67.8777C80.3023 66.7366 80.3231 65.5863 80.2395 64.4413ZM73.3826 42.2845L69.8176 43.9322L68.0351 44.7561C67.5558 44.9764 67.0775 45.1989 66.5957 45.4144C66.2712 44.7863 65.8987 44.1847 65.5351 43.5789C65.1048 42.874 64.6664 42.1744 64.213 41.4848C63.3057 40.1057 62.3512 38.7601 61.3742 37.4333L61.0156 37.6916C61.9479 39.0396 62.821 40.4277 63.6559 41.8361C64.0737 42.5402 64.4851 43.2477 64.8832 43.9628C65.287 44.6746 65.6515 45.4075 66.0788 46.1058L66.2808 46.4359L66.5896 46.2684C67.1654 45.9564 67.751 45.664 68.333 45.3648L70.081 44.4705L73.577 42.682L73.3826 42.2845ZM71.1964 26.0387C71.0123 26.1367 70.8336 26.2401 70.6548 26.349C70.0399 26.7248 69.4606 27.1565 68.9242 27.6385C67.4757 26.7885 65.9582 26.0631 64.388 25.4701L63.1531 25.0266C62.7365 24.896 62.3217 24.7603 61.8992 24.6403C61.4767 24.5342 61.0488 24.4417 60.6236 24.3435L59.3345 24.1068C57.6115 23.823 55.8667 23.6946 54.121 23.7231C52.3787 23.7507 50.6419 23.9263 48.9292 24.2483L49.0078 24.6863C50.6964 24.4065 52.4072 24.2836 54.1183 24.319C55.8252 24.3542 57.5264 24.5308 59.2045 24.8468L60.4557 25.1132C60.8673 25.2193 61.279 25.3309 61.6934 25.4288C62.0996 25.5485 62.5139 25.6519 62.9256 25.7607L64.1471 26.1444C65.7623 26.702 67.3256 27.4012 68.8189 28.2339L69.0058 28.34L69.1547 28.1958C69.8887 27.4748 70.718 26.8586 71.6193 26.3647C71.4781 26.2537 71.34 26.1449 71.1964 26.0387ZM34.0137 28.2535C34.7603 27.7157 35.5306 27.2169 36.3243 26.7574C36.5224 26.6424 36.7146 26.5181 36.9028 26.3854C37.0959 26.2614 37.2928 26.1437 37.4903 26.0265L38.0917 25.6905L38.7031 25.3718C39.5262 24.9576 40.3728 24.5921 41.2384 24.2771L41.1014 23.8558C40.1981 24.1213 39.3109 24.4395 38.4445 24.8089L37.7975 25.0958L37.1585 25.4016C36.7427 25.6246 36.3035 25.8094 35.9014 26.0604C35.1059 26.5729 34.3451 27.1379 33.624 27.7516C32.9062 28.3633 32.2202 29.0117 31.5686 29.6941L31.8787 30.0095C32.5512 29.3777 33.2646 28.7913 34.0137 28.2535ZM28.2568 37.8896C28.3788 38.0744 28.5563 38.2174 28.6923 38.3894C28.84 38.5529 28.9913 38.7124 29.1462 38.8679C29.4561 39.1765 29.7835 39.4668 30.1268 39.7374L30.4219 39.4079C30.1329 39.1071 29.8614 38.7899 29.6089 38.4576C29.4838 38.2915 29.3631 38.1229 29.2466 37.9517C29.1894 37.8654 29.133 37.7788 29.0825 37.6879C29.0387 37.5941 28.9854 37.5051 28.9234 37.4224C28.6716 37.097 28.4294 36.7617 28.2001 36.4147C27.9687 36.0669 27.7632 35.7024 27.5854 35.3242L27.1757 35.4888C27.3161 35.9014 27.4658 36.314 27.6426 36.7174C27.8175 37.1231 28.023 37.515 28.2568 37.8896ZM16.8378 64.4977C16.5941 64.5304 16.3476 64.5549 16.1039 64.5738L15.7383 64.5984C15.6769 64.6024 15.6154 64.6024 15.5541 64.5984C15.4929 64.5892 15.4305 64.591 15.3699 64.6037C15.1831 64.65 14.9935 64.6963 14.8039 64.748C14.8662 64.9763 14.9285 65.2023 14.9962 65.4253C15.1614 65.4281 15.3266 65.4226 15.4918 65.409C15.6191 65.3982 15.7356 65.3166 15.8602 65.2949L16.2258 65.1807C16.4668 65.1018 16.7078 65.0175 16.9462 64.9304L16.8378 64.4977ZM51.1389 88.0984C50.6383 86.8491 50.2097 85.5718 49.8551 84.273L49.7794 83.9955L49.4869 84.0445C47.9383 84.3026 46.3713 84.4337 44.8015 84.4363C43.2338 84.4829 41.6648 84.4218 40.1054 84.2536C38.5434 84.0814 36.9957 83.7968 35.4742 83.402C33.9493 83.0068 32.4577 82.4911 31.0136 81.86L30.8321 82.2653C32.2872 82.9347 33.7877 83.4994 35.3225 83.9549C36.8604 84.4087 38.4303 84.7453 40.0187 84.9616C41.6101 85.1847 43.2167 85.2802 44.8232 85.2473C46.3311 85.1737 47.8328 85.0028 49.3189 84.7358C49.6936 85.9515 50.1339 87.1459 50.6378 88.3136C50.9802 89.1063 51.3645 89.88 51.7892 90.6314C51.9111 90.6261 52.033 90.6179 52.1549 90.6069H52.1575C52.2117 90.6043 52.2631 90.5988 52.3173 90.596C51.8761 89.7874 51.4827 88.9534 51.1389 88.0984ZM24.1629 36.0527C22.5561 37.5684 21.1572 39.2922 20.0029 41.1786L19.575 41.8914C19.4369 42.1309 19.2988 42.3703 19.1742 42.6179C19.0524 42.8682 18.9413 43.1239 18.8275 43.3742L18.5107 44.1442C18.1426 45.0756 17.8314 46.0288 17.5788 46.9983C16.5984 46.6854 15.6153 46.3725 14.6376 46.0515C14.5998 46.1984 14.5619 46.3454 14.5293 46.4922C15.5883 46.8786 16.639 47.2758 17.6898 47.6731L17.9853 47.7819L18.0828 47.4663C18.3971 46.4348 18.7715 45.4227 19.204 44.4353L19.5426 43.7035C19.6591 43.464 19.7863 43.2273 19.9001 42.9824C20.0247 42.7457 20.1385 42.5009 20.2494 42.256C20.3713 42.0166 20.4959 41.7799 20.6232 41.5406C21.6724 39.6529 22.9666 37.9136 24.4718 36.3684L24.1629 36.0527Z" fill="url(#paint3_linear_6125_156)"/>
<path d="M47.0198 51.1232C45.0577 52.6473 43.3454 54.4706 41.9449 56.5269C40.6837 55.9804 39.4518 55.3678 38.2543 54.6919L37.2934 54.1306L36.349 53.5429C36.0389 53.3396 35.7314 53.1326 35.4264 52.922C35.1273 52.7026 34.8267 52.4866 34.5181 52.2821C33.2847 51.4587 32.0963 50.5691 30.9581 49.6173C29.8133 48.6678 28.7273 47.6488 27.7062 46.5662L27.3809 46.8654C28.3779 47.9972 29.433 49.076 30.542 50.0972C31.6575 51.1166 32.8309 52.0702 34.0562 52.9533C34.3679 53.1664 34.6875 53.3684 35.0087 53.5668C35.3359 53.756 35.66 53.9494 35.9812 54.1469L36.9644 54.7064L37.9623 55.2377C39.1729 55.8594 40.4142 56.4186 41.6816 56.9129C41.4858 57.2135 41.2968 57.5186 41.1145 57.8281C40.3542 59.126 39.7198 60.4944 39.22 61.9143C38.7351 63.3385 38.3925 64.8077 38.1973 66.3001C37.7889 69.1915 37.9105 72.1336 38.5561 74.981C35.8783 75.8625 32.964 75.662 30.4307 74.422L30.2262 74.8148C31.5726 75.5008 33.0416 75.9101 34.5474 76.0187C36.0532 76.1273 37.5654 75.933 38.9956 75.4472L39.235 75.3613L39.1779 75.1066C38.5452 72.2494 38.4548 69.2978 38.9115 66.4069C39.1494 64.97 39.5093 63.5562 39.9873 62.1811C40.4495 60.8012 41.0424 59.469 41.758 58.2029C43.2068 55.665 45.1155 53.4218 47.3855 51.5891C49.6573 49.7414 52.2592 48.3461 55.0516 47.4781L54.9251 47.0535C52.0608 47.904 49.3798 49.2842 47.0198 51.1232Z" fill="url(#paint4_linear_6125_156)" style="mix-blend-mode:screen"/>
<path d="M79.7232 67.6683C79.6071 68.815 79.3562 69.9438 78.9757 71.0311C78.2023 73.1921 77.0584 75.2004 75.5958 76.9652C74.1906 78.6575 72.5058 80.0941 70.6152 81.212C70.8225 81.5827 70.9913 81.9738 71.119 82.3792C71.2029 82.6404 71.2761 82.8989 71.3437 83.1573C71.2165 83.258 71.0892 83.3586 70.9592 83.4566C70.8671 83.1437 70.7774 82.8308 70.6749 82.5288C70.5268 82.083 70.3229 81.6579 70.0682 81.2637L69.9219 81.046L70.1492 80.91C72.0468 79.7703 73.7262 78.2988 75.1081 76.565C76.4923 74.8444 77.5498 72.8827 78.228 70.7779C78.5611 69.7327 78.8031 68.6603 78.9511 67.5729C79.0906 66.4796 79.1314 65.3759 79.073 64.2753C78.955 62.1874 78.525 60.1292 77.7974 58.1699C76.2501 59.3635 74.5805 60.3878 72.8169 61.2253L72.6245 60.8254C74.4601 59.9224 76.1813 58.8016 77.7513 57.487L78.0438 57.2449L78.1928 57.6013C79.0789 59.7098 79.6168 61.9493 79.7852 64.2318C79.8689 65.3768 79.8481 66.5271 79.7232 67.6683Z" fill="url(#paint5_linear_6125_156)" style="mix-blend-mode:screen"/>
<path d="M72.9273 42.0743L69.3624 43.7221L67.5799 44.546C67.1006 44.7667 66.6222 44.9888 66.1405 45.2042C65.8159 44.5762 65.4435 43.9746 65.0798 43.3688C64.6495 42.6639 64.2111 41.9642 63.7577 41.2746C62.8509 39.8955 61.8963 38.5499 60.919 37.2231L60.5605 37.4815C61.4928 38.8295 62.3658 40.2176 63.2008 41.6259C63.6186 42.33 64.03 43.0376 64.4281 43.7526C64.8319 44.4644 65.1964 45.1973 65.6238 45.8956L65.8258 46.2256L66.1346 46.0582C66.7103 45.7461 67.2959 45.4539 67.8779 45.1546L69.6259 44.2604L73.1219 42.4718L72.9273 42.0743Z" fill="url(#paint6_linear_6125_156)" style="mix-blend-mode:screen"/>
<path d="M71.441 26.1087C70.5397 26.6026 69.7105 27.2188 68.9764 27.9398L68.8275 28.084L68.6407 27.9778C67.1473 27.1452 65.584 26.446 63.9688 25.8883L62.7474 25.5047C62.3357 25.3959 61.9216 25.2925 61.5151 25.1728C61.1008 25.0748 60.6893 24.9633 60.2774 24.8572L59.0262 24.5908C57.3481 24.2747 55.647 24.0981 53.94 24.0629C52.2289 24.0275 50.5182 24.1505 48.8295 24.4302L48.751 23.9922C50.4637 23.6703 52.2005 23.4946 53.9428 23.467C55.6885 23.4385 57.4332 23.5669 59.1562 23.8507L60.4454 24.0874C60.8705 24.1853 61.2984 24.2777 61.7209 24.3842C62.1434 24.5039 62.5578 24.6399 62.9749 24.7705L64.2098 25.214C65.7801 25.807 67.2976 26.5324 68.7462 27.3825C69.2826 26.9004 69.8619 26.4687 70.4768 26.0929C70.6555 25.984 70.8343 25.8806 71.0184 25.7826C71.1617 25.8883 71.3002 25.9971 71.441 26.1087Z" fill="url(#paint7_linear_6125_156)" style="mix-blend-mode:screen"/>
<path d="M33.5585 28.043C34.3052 27.5052 35.0754 27.0065 35.8692 26.5469C36.0672 26.432 36.2595 26.3076 36.4476 26.175C36.6407 26.051 36.8377 25.9332 37.0352 25.816L37.6366 25.48L38.2479 25.1613C39.0711 24.7471 39.9176 24.3816 40.7832 24.0666L40.6463 23.6453C39.743 23.9107 38.8558 24.229 37.9894 24.5984L37.3425 24.8853L36.7034 25.191C36.2876 25.4141 35.8484 25.599 35.4463 25.85C34.6507 26.3626 33.8898 26.9276 33.1686 27.5414C32.4509 28.1532 31.7648 28.8015 31.1133 29.484L31.4234 29.7992C32.096 29.1675 32.8093 28.5809 33.5585 28.043Z" fill="url(#paint8_linear_6125_156)" style="mix-blend-mode:screen"/>
<path d="M28.2569 37.2797C28.3789 37.4645 28.5564 37.6075 28.6924 37.7795C28.8401 37.943 28.9914 38.1025 29.1463 38.258C29.4562 38.5666 29.7836 38.8569 30.1269 39.1275L30.422 38.798C30.1329 38.4973 29.8615 38.18 29.609 37.8477C29.4839 37.6817 29.3632 37.5131 29.2467 37.3419C29.1895 37.2555 29.1331 37.1688 29.0826 37.0781C29.0388 36.9842 28.9855 36.8953 28.9235 36.8125C28.6717 36.4871 28.4295 36.1519 28.2002 35.8048C27.9688 35.457 27.7634 35.0925 27.5855 34.7144L27.1758 34.8789C27.3162 35.2915 27.4659 35.7041 27.6427 36.1075C27.8177 36.5132 28.023 36.9051 28.2569 37.2797Z" fill="url(#paint9_linear_6125_156)" style="mix-blend-mode:screen"/>
<path d="M16.7907 64.338C16.5524 64.425 16.3113 64.5093 16.0703 64.5883L15.7046 64.7024C15.5801 64.7242 15.4636 64.8059 15.3363 64.8166C15.1711 64.8301 15.0059 64.8356 14.8407 64.8329C14.773 64.6098 14.7107 64.3838 14.6484 64.1555C14.8378 64.1038 15.0272 64.0576 15.2144 64.0113C15.275 63.9986 15.3374 63.9968 15.3986 64.0059C15.4599 64.01 15.5215 64.01 15.5828 64.0059L15.9484 63.9814C16.1921 63.9624 16.4386 63.9378 16.6824 63.9053L16.7907 64.338Z" fill="url(#paint10_linear_6125_156)" style="mix-blend-mode:screen"/>
<path d="M52.6726 90.5635C52.5019 90.5798 52.3287 90.5961 52.158 90.607H52.1553C51.6312 89.724 51.1644 88.8079 50.7578 87.8645C50.2539 86.6968 49.8136 85.5025 49.4389 84.2867C47.9528 84.5538 46.4511 84.7246 44.9431 84.7982C43.3366 84.8311 41.7301 84.7356 40.1387 84.5125C38.5503 84.2962 36.9804 83.9597 35.4425 83.5058C33.9077 83.0503 32.4072 82.4856 30.9521 81.8162L31.1336 81.4109C32.5777 82.0422 34.0692 82.558 35.5942 82.9535C37.1156 83.3483 38.6633 83.6329 40.2253 83.8051C41.7847 83.9734 43.3538 84.0344 44.9215 83.9878C46.4912 83.9852 48.0582 83.8542 49.6068 83.596L49.8993 83.547L49.9751 83.8245C50.3296 85.1233 50.7582 86.4006 51.2588 87.6499C51.6603 88.6537 52.1328 89.6274 52.6726 90.5635Z" fill="url(#paint11_linear_6125_156)" style="mix-blend-mode:screen"/>
<path d="M24.333 35.9225C22.8278 37.4677 21.5336 39.2069 20.4844 41.0946C20.3571 41.3341 20.2326 41.5708 20.1107 41.8101C19.9996 42.0549 19.8859 42.2997 19.7613 42.5365C19.6477 42.7813 19.5203 43.018 19.4039 43.2575L19.0653 43.9893C18.6328 44.9767 18.2584 45.9888 17.9441 47.0203L17.8466 47.3359L17.5512 47.2271C16.5004 46.8299 15.4495 46.4326 14.3906 46.0462C14.4231 45.8994 14.461 45.7524 14.4989 45.6055C15.4766 45.9265 16.4597 46.2394 17.4401 46.5523C17.6927 45.5828 18.0039 44.6297 18.3719 43.6982L18.6888 42.9282C18.8025 42.6779 18.9136 42.4222 19.0355 42.1719C19.1601 41.9243 19.2982 41.6848 19.4363 41.4454L19.8643 40.7326C21.0185 38.8462 22.4174 37.1224 24.0241 35.6067L24.333 35.9225Z" fill="url(#paint12_linear_6125_156)" style="mix-blend-mode:screen"/>
<path d="M32.2087 85.2715L32.3712 86.455L32.3767 86.4578C32.3198 86.0632 32.2629 85.6687 32.2087 85.2715ZM82.8754 43.8262L82.9132 43.7745C81.7907 45.1521 80.517 46.398 79.1162 47.4886C75.9463 41.9103 72.0165 36.8039 67.4409 32.3174C64.6716 32.7389 61.9275 33.3129 59.221 34.0369C57.8885 34.3907 56.5669 34.7807 55.2561 35.2069C54.9446 35.3076 54.6331 35.411 54.3217 35.517C52.6533 36.0802 51.0022 36.6996 49.3682 37.3753C48.321 36.014 47.3447 34.599 46.4433 33.1361C47.5754 32.475 48.6966 31.8628 49.834 31.2806C51.0257 30.6684 52.2336 30.0889 53.4848 29.5203C51.0895 25.658 48.3033 22.0548 45.1706 18.7681L45.0785 20.523C42.799 21.0213 40.5657 21.7131 38.4026 22.5908C38.324 22.4982 38.2428 22.4111 38.1615 22.3244C40.0274 24.409 41.6721 26.6831 43.069 29.11C37.6479 31.7217 32.8862 35.5334 29.1417 40.2589C25.3971 44.9843 22.767 50.5007 21.4488 56.3937C21.4482 56.0585 21.3598 55.7294 21.1924 55.4395C21.0251 55.1496 20.7847 54.9091 20.4954 54.7421L20.4927 54.7394C20.1394 54.4801 19.7285 54.3111 19.2957 54.247C18.7561 54.2201 18.2195 54.3417 17.7437 54.5987C17.2678 54.8557 16.8709 55.2383 16.5956 55.7053C16.0586 56.6501 15.7688 57.7163 15.7533 58.8042C15.5931 62.6585 16.5691 66.4746 18.559 69.7739C19.255 70.9084 20.4927 71.888 21.8008 71.6567C22.4442 71.5234 23.0144 71.1525 23.3987 70.6173H23.4014C23.64 70.3051 23.8282 69.9571 23.9593 69.5862C24.2498 68.577 24.3617 67.5244 24.2897 66.4763C25.587 67.1103 26.5999 67.7605 27.8972 68.3943C27.5751 73.5588 28.2125 78.7384 29.7767 83.6686L32.1356 84.7433L32.2087 85.2715C31.3782 79.3641 30.8476 73.4177 30.619 67.456C27.714 65.822 25.0707 63.7573 22.7785 61.3316C23.4423 56.2902 25.1521 51.445 27.7973 47.1094C30.4425 42.7737 33.9641 39.0441 38.1345 36.1619C38.2347 36.306 38.3376 36.4475 38.4405 36.5863C40.2203 38.8555 42.1483 41.0033 44.2119 43.0154C45.7422 42.2917 47.6866 41.5979 49.2168 40.8742C53.1713 44.3476 55.8511 49.0537 56.8271 54.2388C53.8399 55.3558 51.1748 57.1993 49.0705 59.6045C48.3427 60.4475 47.6996 61.3607 47.1503 62.3306C46.0797 64.2001 45.4161 66.2765 45.2032 68.4226C44.9903 70.5687 45.2331 72.7358 45.9155 74.7808C46.2618 75.7465 46.7219 76.6673 47.2859 77.5233L47.2913 77.5315C49.0723 80.3135 51.8693 82.2821 55.0803 83.0138C58.9668 83.8219 63.0264 82.5812 66.4849 80.6277C67.2815 80.1803 68.0511 79.6861 68.7897 79.1476C69.7391 78.4624 70.6239 77.691 71.4329 76.8431C72.0091 76.2365 72.5345 75.5831 73.0037 74.8896C73.6189 73.9827 74.1106 72.9972 74.4659 71.9594C75.8093 68.0007 74.8911 63.517 72.7597 59.9228C72.4186 59.3474 72.0433 58.7932 71.6357 58.2632C69.8267 55.746 67.2117 53.9296 64.2286 53.1183C63.4127 52.9222 62.5759 52.8271 61.737 52.8353C59.9871 48.417 57.6514 44.2564 54.7932 40.4661C56.1796 39.8212 57.6395 39.1846 59.1372 38.597C61.8012 37.5138 64.5541 36.6662 67.3647 36.0639C71.6872 40.5858 75.6301 45.6492 78.2331 51.3518C80.2254 49.9845 82.0491 48.3844 83.6659 46.5851L82.8754 43.8262ZM29.7984 27.7248C28.0688 28.1794 26.512 29.1385 25.3243 30.4809C24.2112 31.64 22.6106 33.4139 22.5077 35.1007C22.4979 35.2469 22.5034 35.3937 22.5239 35.5387C22.5642 35.7905 22.6561 36.0312 22.7938 36.2455C22.9314 36.4598 23.1118 36.6431 23.3236 36.7837C23.5354 36.9244 23.774 37.0194 24.0242 37.0626C24.2744 37.1059 24.5308 37.0965 24.7772 37.0351C25.3939 36.8859 25.9796 36.6289 26.5078 36.276C28.691 35.0741 30.5222 33.3179 31.8186 31.1828C32.791 29.4171 32.1683 27.2242 29.7984 27.7248Z" fill="url(#paint13_linear_6125_156)" style="mix-blend-mode:screen"/>
<path d="M64.9493 53.4224C64.1439 55.3564 62.9657 57.1114 61.4827 58.5864L58.9857 56.0588C57.8344 57.2069 56.4697 58.1166 54.9693 58.736L56.3178 62.0308C54.4019 62.8225 52.3499 63.2283 50.2783 63.2253H50.2404V59.6634C49.845 59.6634 49.455 59.6416 49.0705 59.6036C51.1748 57.1984 53.8398 55.3549 56.827 54.238C55.8511 49.0528 53.1712 44.3467 49.2167 40.8733C47.6863 41.597 45.742 42.2908 44.2118 43.0146C42.1482 41.0025 40.2202 38.8547 38.4404 36.5855C38.6382 36.3623 38.8413 36.1474 39.0526 35.9352L41.5548 38.4582C42.7034 37.3086 44.0652 36.3963 45.563 35.7728L44.2117 32.4809C45.9972 31.7395 47.9028 31.3328 49.8341 31.281C48.6967 31.8632 47.5754 32.4755 46.4434 33.1365C47.3448 34.5994 48.3211 36.0144 49.3683 37.3758C51.0042 36.7009 52.6553 36.0815 54.3218 35.5174C54.5574 35.5991 54.7903 35.6889 55.0178 35.7838L55.2562 35.207C56.567 34.7799 57.8886 34.3899 59.221 34.037C60.0484 34.6043 60.821 35.2483 61.5285 35.9606L59.0209 38.4774C59.0588 38.5154 59.0994 38.5563 59.1373 38.5971C57.6396 39.1847 56.1799 39.8214 54.7933 40.4662C57.6515 44.2563 59.9872 48.4167 61.7371 52.8347C62.576 52.8265 63.4127 52.9215 64.2287 53.1176L64.9493 53.4224Z" fill="url(#paint14_linear_6125_156)" style="mix-blend-mode:screen"/>
<path d="M59.221 34.0369C59.4555 34.1374 59.6847 34.2501 59.9076 34.3743C60.1148 34.5192 60.3145 34.6745 60.5061 34.8397C60.8943 35.1636 61.267 35.5051 61.6241 35.8642L61.72 35.9605L61.6241 36.0567L60.3702 37.3151L59.7451 37.9461C59.5125 38.1322 59.2685 38.3067 59.0205 38.4772C59.1904 38.2282 59.3645 37.9832 59.5499 37.7499L60.1787 37.1226L61.4327 35.8642V36.0566C61.0817 35.704 60.7151 35.3681 60.333 35.0489C60.1449 34.886 59.9418 34.7426 59.7546 34.5781L59.221 34.0369Z" fill="url(#paint15_linear_6125_156)" style="mix-blend-mode:screen"/>
<path d="M38.4404 36.5863L39.0123 35.8956L39.0467 35.8541L39.0929 35.8957L39.7536 36.491C39.9722 36.6911 40.2005 36.8815 40.4003 37.1004L41.6509 38.3621H41.4594C42.6206 37.2 43.9972 36.2775 45.5114 35.6469L45.438 35.8244L44.0866 32.5326L44.035 32.4068L44.1601 32.3549C45.0587 31.9818 45.9894 31.692 46.9405 31.4891C47.4151 31.3837 47.8981 31.3204 48.3837 31.3C48.8666 31.268 49.3509 31.2616 49.8345 31.2808C49.354 31.3281 48.8767 31.3896 48.404 31.4724C47.9307 31.5535 47.4668 31.6719 46.9967 31.7553C46.0618 31.9547 45.1471 32.2396 44.2638 32.6064L44.3373 32.4288L45.6887 35.7209L45.7402 35.8465L45.6154 35.8984C44.1339 36.5152 42.787 37.4175 41.6507 38.5542L41.5548 38.6503L41.4591 38.5542L40.2072 37.2938C39.9899 37.0924 39.8011 36.8624 39.6027 36.6422L39.0123 35.9765H39.0926L38.4404 36.5863Z" fill="url(#paint16_linear_6125_156)" style="mix-blend-mode:screen"/>
<path d="M64.9495 53.4224C64.5871 54.4079 64.1244 55.3531 63.5686 56.2431C63.2914 56.6907 62.9808 57.1166 62.6396 57.5171C62.3049 57.923 61.9511 58.3116 61.5784 58.6829L61.4822 58.7788L61.3868 58.6822L58.8898 56.1547L59.0812 56.1554C57.9172 57.3159 56.5376 58.2355 55.0208 58.8619L55.0948 58.6843L56.4433 61.9791L56.4947 62.1047L56.3695 62.1567C54.4252 62.9591 52.3425 63.3684 50.2406 63.3613L50.1054 63.3609V63.2252L50.1036 62.3347C50.1044 62.0379 50.1219 61.7411 50.1302 61.4443L50.1931 59.6633L50.2408 59.7112L49.0703 59.604L50.2403 59.6159L50.2863 59.6164L50.288 59.6638L50.351 61.4447C50.3593 61.7415 50.3768 62.0384 50.3775 62.3352L50.3757 63.2257L50.2403 63.0896C52.3069 63.0969 54.3546 62.6945 56.2662 61.9055L56.1925 62.083L54.8439 58.7882L54.7924 58.6621L54.918 58.6105C56.4019 57.9976 57.7515 57.0979 58.8903 55.9626L58.9864 55.8668L59.0818 55.9633L61.5788 58.4909L61.3873 58.4902C61.7533 58.1252 62.1011 57.7431 62.4309 57.3438C62.7614 56.9459 63.0591 56.5231 63.3717 56.1102C63.9801 55.2658 64.5084 54.3659 64.9495 53.4224Z" fill="url(#paint17_linear_6125_156)" style="mix-blend-mode:screen"/>
<path d="M74.4657 71.9589C74.1105 72.9967 73.6187 73.9822 73.0036 74.8891C72.41 75.332 71.7642 75.6994 71.0807 75.9828L71.4328 76.8429C70.6238 77.6907 69.739 78.4621 68.7895 79.1474C68.4347 79.1827 68.0774 79.199 67.717 79.199H67.6899V76.6466C66.5275 76.6448 65.3769 76.4117 64.3046 75.9609L63.3242 78.3171C61.9444 77.738 60.6918 76.8912 59.6383 75.8251L61.4393 74.024C60.6193 73.1957 59.9688 72.2141 59.5245 71.1346L57.1764 72.1088C56.6083 70.7257 56.3174 69.2436 56.3203 67.7474L58.8607 67.7392C58.8594 66.5681 59.0895 65.4084 59.5378 64.3274L57.1924 63.3456C57.7675 61.9585 58.6096 60.6991 59.6705 59.6399L61.4633 61.4464C62.2872 60.6231 63.2633 59.9694 64.3368 59.5222L63.367 57.1606C64.733 56.5946 66.1956 56.3016 67.6732 56.2981H67.7274V58.8502C68.8893 58.8492 70.0399 59.0794 71.1128 59.5275L71.6355 58.2624C72.0432 58.7925 72.4187 59.3468 72.7599 59.9223C74.891 63.5164 75.8091 68.0002 74.4657 71.9589Z" fill="url(#paint18_linear_6125_156)" style="mix-blend-mode:screen"/>
<path d="M67.6894 76.6466C66.5224 76.6671 65.3629 76.4557 64.2775 76.0246L64.3674 75.9876L63.4336 78.3634L63.3905 78.473L63.2777 78.4274C62.9265 78.2897 62.5834 78.1319 62.2502 77.9548C61.9173 77.7765 61.5944 77.5801 61.2828 77.3665C60.6569 76.9428 60.0738 76.4587 59.5418 75.9209L59.4463 75.8245L59.5422 75.7285L61.3432 73.9274L61.3426 74.1198C60.5103 73.2788 59.8499 72.2822 59.3988 71.1863L59.5756 71.2602L57.2276 72.2344L57.1025 72.2863L57.0507 72.1605C56.4762 70.7609 56.1819 69.2613 56.1846 67.7473V67.6117L56.3194 67.6112L58.8597 67.6031L58.7247 67.7391C58.724 66.5501 58.9576 65.3727 59.4122 64.2749L59.4851 64.4529L57.1398 63.4707L57.015 63.4184L57.0669 63.2928C57.6492 61.8894 58.5014 60.6152 59.5745 59.5431L59.6706 59.4472L59.7661 59.5434L61.559 61.3499L61.3677 61.3495C62.2041 60.514 63.1949 59.8507 64.2844 59.3968L64.211 59.5743L63.2413 57.2127L63.1896 57.0869L63.3149 57.0351C64.0129 56.7461 64.7374 56.5268 65.4782 56.3805C65.848 56.3054 66.2216 56.2504 66.5973 56.2157C66.9729 56.184 67.3499 56.1724 67.7268 56.1809L67.8463 56.1826L67.8441 56.2986L67.7945 58.8507L67.7269 58.7827C68.8932 58.8048 70.0437 59.0583 71.1122 59.5285C70.0347 59.1033 68.8842 58.8961 67.7269 58.919L67.6604 58.9204L67.6591 58.851L67.6096 56.2989L67.7268 56.4167C66.9897 56.4345 66.2552 56.5117 65.5304 56.6477C64.8071 56.7907 64.0996 57.0049 63.418 57.2871L63.4917 57.1094L64.4614 59.471L64.5131 59.5967L64.388 59.6486C63.331 60.089 62.3697 60.7325 61.5582 61.543L61.4623 61.6387L61.3668 61.5425L59.5742 59.7353H59.7657C58.7178 60.7822 57.8857 62.0265 57.317 63.397L57.2442 63.2191L59.5894 64.2013L59.7146 64.2536L59.6623 64.3792C59.2215 65.4438 58.9949 66.5856 58.9956 67.7386V67.8743L58.8606 67.8747L56.3203 67.8829L56.4552 67.7469C56.4525 69.2252 56.7399 70.6896 57.3008 72.0563L57.1239 71.9824L59.472 71.0083L59.5973 70.9563L59.6489 71.0821C60.0865 72.1451 60.7271 73.1118 61.5345 73.9275L61.6299 74.0239L61.534 74.1198L59.733 75.9209L59.7335 75.7286C60.253 76.2538 60.8225 76.7266 61.4337 77.1404C61.7392 77.347 62.0574 77.5337 62.3797 77.7123C62.7041 77.8869 63.0312 78.058 63.3694 78.2064L63.2136 78.2706L64.2404 75.9341L64.2687 75.8695L64.3304 75.8969C65.3899 76.3667 66.5315 76.6215 67.6894 76.6466Z" fill="url(#paint19_linear_6125_156)" style="mix-blend-mode:screen"/>
<path d="M45.1718 18.7693C48.3044 22.0555 51.0903 25.6582 53.4851 29.5201L52.5729 29.9402C50.4637 26.5077 47.9472 23.3453 45.0787 20.5224L45.1718 18.7693ZM21.4488 56.3933L21.9347 56.3318C25.1984 44.213 32.4674 35.9718 43.069 29.9405V29.1096C37.5608 31.5959 32.7243 35.3696 28.9633 40.1158C25.2023 44.862 22.6257 50.4431 21.4488 56.3933ZM16.9232 63.9052C14.908 54.8097 18.5726 54.2084 20.4927 54.7389C20.1394 54.4796 19.7286 54.3106 19.2957 54.2465C18.7561 54.2196 18.2195 54.3412 17.7437 54.5982C17.2678 54.8552 16.8709 55.2378 16.5956 55.7048C16.0586 56.6497 15.7688 57.7159 15.7533 58.8038C15.593 62.6582 16.5691 66.4744 18.559 69.7738C19.255 70.9084 20.4927 71.8879 21.8008 71.6566C22.4442 71.5233 23.0144 71.1525 23.3987 70.6173C23.1984 70.7589 19.0543 73.5203 16.9232 63.9052ZM27.8972 68.3945C27.5549 74.1135 28.3674 79.8431 30.2859 85.2386L31.0874 84.2659C29.5099 78.9918 28.9123 73.471 29.3246 67.9796L25.5906 65.8956L24.2898 66.4763L27.8972 68.3945ZM46.4435 33.1363V34.497L49.17 38.2948C54.9667 36.1775 60.9151 34.5055 66.964 33.2933C71.4559 37.6587 75.4313 42.5305 78.8113 47.8117L79.1163 47.4886C75.9465 41.9102 72.0167 36.8038 67.4409 32.3173C61.237 33.2709 55.1695 34.969 49.3684 37.3753L46.4435 33.1363ZM45.0542 73.9694C45.0298 73.847 45.0136 73.7599 45.0027 73.7137C45.0139 73.8 45.031 73.8855 45.0542 73.9694ZM72.7603 59.9221C70.3824 55.9172 66.3795 52.7884 61.7372 52.8345C59.9873 48.4165 57.6515 44.2561 54.7932 40.466V42.0005C57.3789 45.6298 59.4795 49.5841 61.0412 53.7624C61.0412 53.7624 70.7072 52.5093 73.4293 65.7105C76.1484 78.9089 58.0891 84.9749 51.6814 80.9917C50.0776 80.0301 48.6023 78.8671 47.2912 77.5309C49.0723 80.3129 51.8692 82.2815 55.0803 83.0132C58.9667 83.8213 63.0264 82.5806 66.4849 80.6271C69.9785 78.6519 73.1716 75.7678 74.4661 71.9588C75.8095 68.0001 74.8914 63.5163 72.7603 59.9221ZM45.3102 67.619C46.5654 62.0635 50.6976 57.7021 56.3844 55.0822L56.8271 54.2384C49.8484 57.1551 46.4151 61.8143 45.3102 67.619ZM84.2458 45.9238L83.523 46.0853C81.8788 47.8973 80.0361 49.5169 78.0299 50.9131L78.2334 51.3517C80.4657 49.815 82.4871 47.99 84.2458 45.9238ZM22.9762 36.186C22.9551 36.0414 22.9493 35.895 22.9587 35.7492C23.0624 34.0614 24.6617 32.2881 25.7769 31.1276C26.9641 29.785 28.5211 28.8265 30.2508 28.3732C30.564 28.2779 30.8951 28.2583 31.2173 28.316C31.5394 28.3737 31.8434 28.507 32.1045 28.7052C31.7996 27.9389 31.0388 27.4628 29.7991 27.7259C28.0694 28.1792 26.5123 29.1378 25.3251 30.4805C24.2101 31.6409 22.6108 33.4141 22.5068 35.1021C22.4975 35.2479 22.5034 35.3942 22.5244 35.5388C22.5817 35.9494 22.7819 36.3265 23.0894 36.6031C23.0356 36.469 22.9976 36.329 22.9762 36.186Z" fill="url(#paint20_linear_6125_156)" style="mix-blend-mode:screen"/>
<path style="mix-blend-mode:screen" d="M32.3038 42.9452C31.8227 43.6269 31.3864 44.5242 31.7793 45.2607C31.9941 45.55 32.274 45.784 32.5962 45.9437C32.9184 46.1034 33.2737 46.1841 33.6329 46.1792C35.2497 46.3597 36.8857 46.2445 38.4617 45.839C38.8847 45.7787 39.2893 45.6252 39.6464 45.3896C40.0036 45.1539 40.3045 44.8419 40.5278 44.4759C40.7588 43.6855 40.6802 42.8362 40.3081 42.1021C40.0382 41.1736 39.5795 40.3115 38.961 39.5702C36.6308 37.1366 33.5942 41.1166 32.3038 42.9452Z" fill="url(#paint21_linear_6125_156)"/>
<path style="mix-blend-mode:screen" d="M34.4256 30.5212C34.221 30.8751 34.0529 31.3621 34.3341 31.6584C34.4729 31.7587 34.6349 31.8215 34.8047 31.8408C34.9745 31.86 35.1464 31.8352 35.3039 31.7685C36.5675 31.4493 37.7895 30.982 38.9446 30.3764C39.3526 30.1861 39.7228 29.9231 40.0375 29.6001C40.1935 29.4373 40.3105 29.2409 40.3795 29.0258C40.4485 28.8107 40.4677 28.5826 40.4357 28.3589C40.3458 28.0577 40.1661 27.7915 39.9208 27.5961C39.6755 27.4008 39.3765 27.2858 39.064 27.2667C36.9699 27.0298 35.3735 28.8833 34.4256 30.5212Z" fill="url(#paint22_linear_6125_156)"/>
<path d="M71.4286 71.123C71.2619 71.3885 71.0378 71.6128 70.7728 71.7791C70.5078 71.9454 70.2089 72.0495 69.8983 72.0836C69.2603 72.0731 68.652 71.8108 68.205 71.3535C67.7582 70.914 67.4386 70.3608 67.2805 69.753C67.1223 69.1452 67.1316 68.5057 67.3071 67.9028C67.511 67.2725 67.8724 66.7052 68.3567 66.2552C68.841 65.8052 69.4322 65.4875 70.0736 65.3324C69.1661 65.3022 68.2613 65.4464 67.4077 65.7573C66.5502 66.0733 65.8239 66.6706 65.3461 67.4527C65.0275 68.0794 64.8735 68.7775 64.8987 69.4807C64.9239 70.184 65.1274 70.8691 65.49 71.4712C66.2265 72.6657 67.2948 73.6176 68.5633 74.2094C67.5815 74.3306 66.587 74.1304 65.7275 73.6386C63.1397 72.2699 61.4487 69.6403 62.2797 66.6415C62.5163 65.7875 62.9457 64.9997 63.5344 64.3393C64.1232 63.679 64.8555 63.1638 65.6746 62.8338C66.4936 62.5038 67.3774 62.3679 68.2572 62.4365C69.137 62.5052 69.9892 62.7766 70.7477 63.2297C72.2828 64.1468 72.6947 66.8585 72.4895 68.5057C72.3458 69.4498 71.9823 70.3466 71.4286 71.123Z" fill="url(#paint23_linear_6125_156)" style="mix-blend-mode:screen"/>
<path d="M16.0132 15.3044C15.6371 15.1697 15.2292 15.1526 14.8432 15.2555C14.8676 15.5955 14.9353 15.9248 14.9568 16.2648C14.9649 16.4036 14.0767 16.8553 13.9467 16.9287C13.5753 17.1429 13.1888 17.3293 12.7902 17.4864C12.1213 17.7546 11.4168 17.9224 10.6992 17.9843C9.81384 18.0594 8.92271 17.9439 8.0853 17.6455C7.24789 17.3471 6.48346 16.8727 5.84303 16.2539C5.63454 16.039 4.62975 15.2854 4.66225 14.9425C4.65952 14.9371 4.66225 14.9344 4.66225 14.9317C4.70831 14.6297 4.96286 14.3385 5.00892 14.0365H5.00673C4.68172 14.061 4.26428 13.9712 3.94238 13.9957C3.20284 13.085 2.66067 12.0292 2.35054 10.8959C2.04041 9.76263 1.96916 8.57679 2.14135 7.41426C2.29863 6.28962 2.69009 5.21092 3.29021 4.24847C3.89032 3.28603 4.68562 2.46145 5.62424 1.82851L5.69735 1.7795C5.86738 1.918 6.05499 2.03317 6.25524 2.12198C6.3013 2.14375 6.34464 2.16552 6.39335 2.18455L6.40419 2.18995C6.54502 1.83627 6.8267 1.40915 6.97291 1.05C6.98128 1.03433 6.98852 1.01807 6.99458 1.00137C10.6264 0.0790839 14.4481 0.049097 17.2133 4.26634C19.8752 8.33151 18.2909 12.3143 16.0132 15.3044Z" fill="url(#paint24_linear_6125_156)" style="mix-blend-mode:screen"/>
<path d="M3.33496 10.6307C3.99568 11.6379 4.92797 12.4354 6.02298 12.9302C7.11798 13.425 8.33051 13.5967 9.51898 13.4251C10.7024 13.2275 11.8303 12.7785 12.8274 12.1083C13.8244 11.438 14.6677 10.5618 15.301 9.5382C15.8334 8.79712 16.1985 7.94827 16.3707 7.05085C16.5429 6.15344 16.5181 5.22909 16.2981 4.34229C16.9073 5.34381 17.3049 6.4605 17.4662 7.62294C17.6276 8.78539 17.5492 9.96875 17.2361 11.0995C16.9965 12.0913 16.5373 13.0161 15.8927 13.8049C15.2136 14.5655 14.3725 15.1624 13.432 15.5511C12.4419 16.0015 11.3712 16.2454 10.2847 16.268C9.19808 16.2906 8.11824 16.0914 7.11051 15.6826C6.1017 15.238 5.22415 14.5395 4.56274 13.6545C3.90133 12.7695 3.47844 11.728 3.33496 10.6307Z" fill="url(#paint25_linear_6125_156)" style="mix-blend-mode:screen"/>
<path style="mix-blend-mode:screen" d="M5.52411 2.79143C6.44185 1.97292 7.55899 1.41315 8.76192 1.16903C9.88467 0.968788 11.098 0.924493 11.9386 1.83589C12.3415 2.28153 12.5755 2.85544 12.5994 3.457C12.5797 4.00534 12.3525 4.52548 11.9642 4.91135C11.1598 5.97669 10.1058 6.82584 8.89594 7.38328C7.68896 7.93711 6.40759 8.30996 5.09281 8.48989C4.66532 8.59887 4.21394 8.56269 3.80906 8.38699C3.59242 8.23475 3.41714 8.03047 3.2992 7.79275C3.18126 7.55504 3.1244 7.29146 3.13382 7.02602C3.13381 6.14321 3.41356 5.28332 3.93255 4.57092C4.3828 3.90998 4.91794 3.31164 5.52411 2.79143Z" fill="url(#paint26_linear_6125_156)"/>
<path style="mix-blend-mode:screen" d="M14.9575 16.2649L14.8439 15.2555L10.1243 9.05833C10.1586 9.0304 10.1917 9.00102 10.2261 8.97324C10.0257 8.95155 9.7955 8.92704 9.59512 8.90527C7.69461 10.2399 6.12492 11.9955 5.00727 14.0366H5.01C4.96394 14.3386 4.70938 14.6298 4.66332 14.9318C4.66332 14.9344 4.66059 14.9372 4.66332 14.9426C6.06526 12.9275 7.71892 11.1016 9.58375 9.50965C11.0559 11.9999 12.8643 14.2733 14.9575 16.2649Z" fill="url(#paint27_linear_6125_156)"/>
<path d="M9.8116 8.88058C7.8696 10.1992 6.24121 11.9322 5.04261 13.9558C4.67631 13.8708 4.29387 13.8879 3.93652 14.0052C5.34588 11.9477 7.15429 10.1973 9.25333 8.85889C9.43481 8.91215 9.62657 8.9196 9.8116 8.88058Z" fill="url(#paint28_linear_6125_156)" style="mix-blend-mode:screen"/>
<path style="mix-blend-mode:screen" d="M9.81177 8.88075C9.62676 8.91849 9.43543 8.91103 9.25388 8.85899C7.40773 6.90675 6.14957 4.46925 5.625 1.82855L5.69811 1.77954C5.86814 1.91804 6.05575 2.03321 6.256 2.12203C6.9962 4.58426 8.20365 6.87935 9.81177 8.88075Z" fill="url(#paint29_linear_6125_156)"/>
<path d="M10.2258 8.95148C10.0862 8.97803 9.94184 8.96191 9.81145 8.90521C8.21707 6.92973 7.05272 4.64035 6.39355 2.18484L6.40439 2.19024C6.54523 1.83657 6.8269 1.40945 6.97312 1.05029C7.68728 3.82284 8.78199 6.48207 10.2258 8.95148Z" fill="url(#paint30_linear_6125_156)" style="mix-blend-mode:screen"/>
<path d="M10.2255 8.95155C11.7761 11.3883 13.7343 13.5376 16.0135 15.3045L14.8435 15.2555C12.7956 13.4639 11.0903 11.3119 9.81152 8.90527L10.2255 8.95155Z" fill="url(#paint31_linear_6125_156)" style="mix-blend-mode:screen"/>
<path style="mix-blend-mode:screen" d="M4.88812 3.38981C4.94676 3.34224 5.0196 3.31585 5.09496 3.31487C5.17032 3.31389 5.24383 3.33838 5.30367 3.38441C5.36624 3.45281 5.40518 3.53966 5.41473 3.63207C5.47039 3.95316 5.41355 4.28371 5.25389 4.56744C5.22758 4.62702 5.18801 4.67975 5.13823 4.72156C5.08846 4.76337 5.0298 4.79316 4.96676 4.80863C4.79714 4.82887 4.65751 4.67056 4.59418 4.51119C4.52016 4.31689 4.50872 4.10415 4.56145 3.90296C4.61419 3.70178 4.72845 3.52229 4.88812 3.38981ZM6.03558 8.59152C6.05688 8.76587 6.13135 8.92934 6.24877 9.05951C6.33907 9.14043 6.45103 9.19295 6.57077 9.21054C6.69051 9.22812 6.81276 9.21001 6.92234 9.15845C7.0306 9.10429 7.12558 9.02675 7.2005 8.93138C7.27542 8.83601 7.32842 8.72517 7.35569 8.60681C7.41443 8.38016 7.38144 8.13935 7.26394 7.93706C7.21461 7.85525 7.14957 7.78411 7.07261 7.72779C6.99565 7.67147 6.90831 7.63109 6.81566 7.60901C6.72302 7.58692 6.62693 7.58357 6.53299 7.59915C6.43904 7.61473 6.34913 7.64893 6.26846 7.69975C5.9633 7.87724 5.97914 8.27818 6.03558 8.59152ZM4.02333 11.3713C4.03144 11.3842 4.04 11.3969 4.04901 11.4094C4.12481 11.515 4.22733 11.5983 4.34595 11.6508C4.46458 11.7032 4.595 11.7229 4.72373 11.7077C4.85195 11.6887 4.97192 11.6327 5.06904 11.5465C5.16615 11.4603 5.23622 11.3476 5.27071 11.222C5.29311 11.0592 5.28221 10.8935 5.23867 10.735C5.19514 10.5766 5.11989 10.4287 5.01752 10.3005C4.81123 10.0676 4.43054 10.2563 4.21962 10.4011C4.06592 10.5039 3.95899 10.6637 3.92221 10.8455C3.88542 11.0273 3.92178 11.2163 4.02333 11.3713ZM9.21718 12.1649C9.34835 12.2083 9.49008 12.2074 9.62067 12.1622C9.75127 12.117 9.86354 12.0301 9.9403 11.9148C10.0057 11.8053 10.0379 11.6791 10.033 11.5515C10.0281 11.424 9.98632 11.3006 9.91272 11.1966C9.8361 11.0947 9.73362 11.0155 9.61604 10.9671C9.49846 10.9187 9.37008 10.903 9.24437 10.9216C8.55534 11.0268 8.64504 11.9602 9.21718 12.1649ZM9.03103 4.48425C9.18587 4.56185 9.36174 4.58637 9.53176 4.55406C9.70178 4.52174 9.85658 4.43438 9.9725 4.30532C10.0834 4.17184 10.1553 4.01005 10.18 3.83797C10.2048 3.66588 10.1816 3.49027 10.1129 3.33068C10.0499 3.16473 9.92434 3.03045 9.7634 2.95698C9.60238 2.90521 9.42899 2.90738 9.2693 2.96315C9.11876 3.00025 8.97926 3.07303 8.86247 3.17542C8.78688 3.27202 8.73122 3.38279 8.69874 3.50126C8.66626 3.61973 8.65761 3.74351 8.67331 3.86538C8.689 3.98724 8.72872 4.10474 8.79014 4.211C8.85157 4.31726 8.93346 4.41015 9.03103 4.48425ZM12.1415 10.3065C12.2538 10.4369 12.4089 10.5225 12.5786 10.5478C12.6739 10.55 12.7684 10.5314 12.8558 10.4933C12.9432 10.4552 13.0213 10.3985 13.0848 10.3271C13.2275 10.1807 13.3228 9.99431 13.3581 9.79248C13.3935 9.59066 13.3672 9.38281 13.2828 9.19626C13.1984 9.00971 13.0597 8.85317 12.8851 8.74722C12.7105 8.64127 12.5081 8.59087 12.3045 8.60263C12.1663 8.60617 12.0326 8.65212 11.9213 8.73429C11.4856 9.08112 11.8383 9.99122 12.1415 10.3065ZM15.93 14.2347C16.038 14.1838 16.1307 14.1049 16.1986 14.0063C16.2664 13.9077 16.3071 13.7927 16.3164 13.6732C16.32 13.5744 16.3032 13.4759 16.2672 13.3838C16.2312 13.2918 16.1767 13.2082 16.1071 13.1382C15.9659 12.9988 15.7836 12.9091 15.5873 12.8826C15.4839 12.8625 15.3772 12.8685 15.2767 12.9C15.1761 12.9315 15.0849 12.9874 15.0111 13.0629C14.9373 13.1385 14.8833 13.2311 14.8539 13.3327C14.8245 13.4343 14.8205 13.5416 14.8424 13.6451C14.8698 13.7589 14.9207 13.8657 14.9918 13.9585C15.0629 14.0513 15.1527 14.128 15.2553 14.1836C15.3579 14.2392 15.471 14.2726 15.5872 14.2814C15.7035 14.2903 15.8202 14.2742 15.93 14.2347ZM11.7935 16.1193C11.9658 16.2741 12.1817 16.3715 12.4114 16.398C12.5598 16.4299 12.7143 16.4162 12.8549 16.3588C12.9955 16.3014 13.1157 16.2029 13.1999 16.076C13.2383 15.9913 13.2576 15.8991 13.2563 15.806C13.2549 15.713 13.2331 15.6214 13.1924 15.5378C13.1091 15.371 12.987 15.227 12.8363 15.118C12.6792 14.989 12.4941 14.8989 12.296 14.855C12.197 14.8337 12.0947 14.8325 11.9952 14.8513C11.8957 14.8701 11.8009 14.9087 11.7164 14.9647C11.3309 15.2394 11.4959 15.8394 11.7935 16.1193Z" fill="url(#paint32_linear_6125_156)"/>
<path d="M92.2602 87.7628C92.0075 87.6723 91.7334 87.6609 91.4741 87.73C91.4906 87.9583 91.536 88.1796 91.5506 88.4081C91.556 88.5013 90.9592 88.8048 90.8719 88.8541C90.6224 88.998 90.3627 89.1233 90.0949 89.2288C89.6456 89.409 89.1723 89.5217 88.6903 89.5633C88.0954 89.6137 87.4968 89.5361 86.9342 89.3356C86.3716 89.1352 85.858 88.8165 85.4277 88.4008C85.2877 88.2562 84.6126 87.7501 84.6345 87.5197C84.6326 87.5161 84.6345 87.5142 84.6345 87.5121C84.6654 87.3092 84.8364 87.1136 84.8673 86.9108H84.8655C84.6472 86.9272 84.367 86.8669 84.1504 86.8833C83.6536 86.2714 83.2893 85.5621 83.081 84.8007C82.8726 84.0392 82.8247 83.2425 82.9404 82.4614C83.0461 81.7059 83.3091 80.9812 83.7123 80.3346C84.1155 79.6879 84.6498 79.1339 85.2804 78.7087L85.3295 78.6758C85.4437 78.7689 85.5698 78.8464 85.7043 78.9061C85.7353 78.9207 85.7644 78.9354 85.7971 78.9482L85.8047 78.9519C85.8993 78.7142 86.0886 78.4272 86.1869 78.1859C86.1925 78.1753 86.1973 78.1643 86.2014 78.153C88.6414 77.5333 91.2091 77.5133 93.0666 80.3465C94.8549 83.0776 93.7905 85.754 92.2602 87.7628Z" fill="url(#paint33_linear_6125_156)" style="mix-blend-mode:screen"/>
<path d="M83.7422 84.6226C84.1861 85.2993 84.8125 85.8351 85.5481 86.1675C86.2838 86.4999 87.0984 86.6153 87.8969 86.5C88.692 86.3672 89.4498 86.0656 90.1197 85.6153C90.7895 85.1649 91.3561 84.5763 91.7816 83.8886C92.1393 83.3907 92.3845 82.8204 92.5002 82.2174C92.6159 81.6145 92.5993 80.9935 92.4514 80.3977C92.8606 81.0706 93.1277 81.8208 93.2361 82.6018C93.3445 83.3828 93.2918 84.1778 93.0814 84.9375C92.9345 85.6093 92.6241 86.2342 92.1782 86.7561C91.7322 87.2781 91.1644 87.6809 90.5256 87.9286C89.8605 88.2311 89.1411 88.395 88.4111 88.4101C87.6811 88.4253 86.9556 88.2915 86.2785 88.0168C85.6008 87.7181 85.0113 87.2487 84.567 86.6541C84.1227 86.0595 83.8386 85.3598 83.7422 84.6226Z" fill="url(#paint34_linear_6125_156)" style="mix-blend-mode:screen"/>
<path style="mix-blend-mode:screen" d="M85.2132 79.356C85.8298 78.8061 86.5804 78.43 87.3886 78.266C87.7525 78.1491 88.1404 78.1288 88.5145 78.2073C88.8885 78.2859 89.2359 78.4604 89.5228 78.714C89.7936 79.0135 89.9507 79.3992 89.9667 79.8034C89.9535 80.1718 89.8009 80.5213 89.54 80.7805C88.9995 81.4963 88.2913 82.0668 87.4784 82.4413C86.6674 82.8134 85.8066 83.0639 84.9232 83.1848C84.636 83.258 84.3328 83.2337 84.0608 83.1157C83.9152 83.0134 83.7975 82.8761 83.7182 82.7164C83.639 82.5567 83.6008 82.3796 83.6071 82.2013C83.6072 81.608 83.7953 81.0302 84.1442 80.5515C84.4466 80.1075 84.8061 79.7055 85.2132 79.356Z" fill="url(#paint35_linear_6125_156)"/>
<path style="mix-blend-mode:screen" d="M91.5503 88.4082L91.4739 87.73L88.3031 83.5664C88.3262 83.5477 88.3486 83.5279 88.3713 83.5093C88.2366 83.4947 88.082 83.4782 87.947 83.4636C86.6701 84.3603 85.6155 85.54 84.8647 86.9113H84.8665C84.8356 87.1142 84.6645 87.3098 84.6336 87.5126C84.6336 87.5144 84.6318 87.5163 84.6336 87.5202C85.5755 86.1664 86.6865 84.9397 87.9394 83.8701C88.9286 85.5431 90.1438 87.0703 91.5503 88.4082Z" fill="url(#paint36_linear_6125_156)"/>
<path d="M88.0934 83.4471C86.7888 84.333 85.6948 85.4973 84.8896 86.8568C84.6435 86.7997 84.3866 86.8112 84.1465 86.89C85.0934 85.5076 86.3083 84.3316 87.7185 83.4324C87.8404 83.4682 87.9691 83.4733 88.0934 83.4471Z" fill="url(#paint37_linear_6125_156)" style="mix-blend-mode:screen"/>
<path style="mix-blend-mode:screen" d="M88.0933 83.4472C87.969 83.4725 87.8404 83.4675 87.7184 83.4325C86.4781 82.1209 85.6327 80.4833 85.2803 78.7091L85.3294 78.6763C85.4436 78.7694 85.5697 78.8468 85.7042 78.9066C86.2016 80.5608 87.0129 82.1026 88.0933 83.4472Z" fill="url(#paint38_linear_6125_156)"/>
<path d="M88.3725 83.4946C88.2787 83.5125 88.1817 83.5017 88.0941 83.4636C87.023 82.1363 86.2407 80.5983 85.7979 78.9486L85.8054 78.9522C85.9001 78.7145 86.0893 78.4276 86.1876 78.1863C86.6672 80.049 87.4026 81.8356 88.3725 83.4946Z" fill="url(#paint39_linear_6125_156)" style="mix-blend-mode:screen"/>
<path d="M88.3722 83.4947C89.4139 85.1318 90.7293 86.5758 92.2605 87.7629L91.4744 87.73C90.0986 86.5263 88.9529 85.0805 88.0938 83.4636L88.3722 83.4947Z" fill="url(#paint40_linear_6125_156)" style="mix-blend-mode:screen"/>
<path style="mix-blend-mode:screen" d="M84.7864 79.758C84.8259 79.7261 84.8748 79.7084 84.9255 79.7077C84.9762 79.7071 85.0256 79.7236 85.0658 79.7545C85.1078 79.8006 85.1339 79.8589 85.1404 79.921C85.1778 80.1367 85.1396 80.3588 85.0323 80.5494C85.0146 80.5894 84.9881 80.6249 84.9546 80.653C84.9212 80.6811 84.8818 80.7011 84.8394 80.7115C84.7258 80.725 84.6316 80.6187 84.5894 80.5116C84.5396 80.3811 84.5318 80.2382 84.5671 80.103C84.6025 79.9678 84.6792 79.8471 84.7864 79.758ZM85.5573 83.2528C85.5716 83.3699 85.6216 83.4798 85.7005 83.5672C85.7612 83.6216 85.8364 83.6569 85.9168 83.6688C85.9973 83.6806 86.0794 83.6685 86.153 83.6339C86.2258 83.5975 86.2896 83.5454 86.3399 83.4813C86.3903 83.4173 86.4259 83.3428 86.4442 83.2633C86.4836 83.111 86.4615 82.9492 86.3825 82.8133C86.3494 82.7583 86.3058 82.7104 86.2541 82.6725C86.2024 82.6347 86.1437 82.6075 86.0815 82.5926C86.0192 82.5777 85.9547 82.5754 85.8915 82.5859C85.8284 82.5963 85.768 82.6193 85.7138 82.6534C85.5087 82.7732 85.5194 83.0422 85.5573 83.2528ZM84.2051 85.1204L84.2224 85.1461C84.2733 85.2171 84.3422 85.2731 84.4219 85.3083C84.5016 85.3435 84.5892 85.3568 84.6757 85.3466C84.7618 85.3339 84.8424 85.2962 84.9077 85.2383C84.9729 85.1803 85.02 85.1046 85.0432 85.0203C85.0582 84.9109 85.0509 84.7995 85.0216 84.6931C84.9924 84.5866 84.9418 84.4873 84.873 84.4011C84.7344 84.2446 84.4791 84.3715 84.337 84.4687C84.2338 84.5378 84.1621 84.6452 84.1373 84.7672C84.1126 84.8893 84.137 85.0163 84.2051 85.1204ZM87.6946 85.6536C87.7827 85.6828 87.878 85.6822 87.9657 85.6519C88.0535 85.6215 88.1289 85.5631 88.1804 85.4856C88.2243 85.412 88.246 85.3272 88.2427 85.2415C88.2394 85.1558 88.2113 85.0729 88.1619 85.003C88.1104 84.9346 88.0415 84.8813 87.9625 84.8488C87.8835 84.8164 87.7973 84.8058 87.7128 84.8183C87.2502 84.889 87.3104 85.5161 87.6946 85.6536ZM87.5697 80.4934C87.6738 80.5456 87.7919 80.5621 87.9062 80.5403C88.0204 80.5186 88.1244 80.4599 88.2023 80.3732C88.2767 80.2835 88.325 80.1749 88.3416 80.0593C88.3583 79.9437 88.3427 79.8258 88.2966 79.7186C88.2543 79.6071 88.1699 79.5168 88.0617 79.4675C87.9536 79.4327 87.8371 79.4341 87.7298 79.4716C87.6287 79.4965 87.5349 79.5454 87.4565 79.6142C87.4057 79.6791 87.3683 79.7535 87.3465 79.8331C87.3247 79.9127 87.3189 79.9958 87.3295 80.0776C87.34 80.1595 87.3667 80.2384 87.4079 80.3098C87.4492 80.3812 87.5042 80.4436 87.5697 80.4934ZM89.6596 84.4054C89.735 84.493 89.8392 84.5505 89.9532 84.5674C90.0172 84.5689 90.0807 84.5564 90.1394 84.5308C90.1981 84.5053 90.2506 84.4672 90.2932 84.4192C90.3891 84.3209 90.4532 84.1956 90.4769 84.06C90.5007 83.9244 90.483 83.7847 90.4263 83.6594C90.3695 83.534 90.2764 83.4289 90.159 83.3577C90.0417 83.2865 89.9056 83.2527 89.7688 83.2606C89.676 83.263 89.5861 83.2939 89.5112 83.3491C89.2191 83.5818 89.4558 84.1935 89.6596 84.4054ZM92.2051 87.0445C92.2777 87.0103 92.34 86.9574 92.3857 86.8911C92.4313 86.8248 92.4586 86.7475 92.4649 86.6672C92.4673 86.6008 92.456 86.5346 92.4319 86.4728C92.4077 86.4109 92.3711 86.3548 92.3243 86.3078C92.2295 86.2141 92.1069 86.1539 91.9751 86.1361C91.9056 86.1226 91.8339 86.1266 91.7663 86.1478C91.6988 86.1689 91.6375 86.2065 91.5879 86.2572C91.5384 86.308 91.5021 86.3702 91.4823 86.4385C91.4625 86.5067 91.4599 86.5788 91.4746 86.6484C91.493 86.7248 91.5272 86.7964 91.575 86.8587C91.6228 86.9209 91.6831 86.9724 91.7519 87.0097C91.8208 87.0471 91.8967 87.0694 91.9747 87.0754C92.0527 87.0814 92.1314 87.0709 92.2051 87.0445ZM89.426 88.3106C89.5418 88.4147 89.6868 88.4801 89.8411 88.4979C89.9408 88.5193 90.0446 88.5102 90.1391 88.4716C90.2336 88.433 90.3143 88.3668 90.3709 88.2816C90.3966 88.2247 90.4095 88.1627 90.4086 88.1002C90.4077 88.0377 90.393 87.9761 90.3656 87.92C90.3097 87.8079 90.2277 87.7111 90.1265 87.6378C90.021 87.5512 89.8967 87.4907 89.7636 87.4612C89.6971 87.4469 89.6284 87.4461 89.5615 87.4587C89.4947 87.4714 89.431 87.4972 89.3742 87.5349C89.1149 87.7192 89.226 88.1226 89.426 88.3106Z" fill="url(#paint41_linear_6125_156)"/>
<path d="M5.45281 70.8007C5.30766 70.7623 5.15434 70.769 5.01302 70.8198C5.03295 70.9464 5.06878 71.0675 5.08764 71.1942C5.09522 71.2459 4.77703 71.4435 4.73036 71.4751C4.59808 71.5673 4.45922 71.6495 4.3149 71.721C4.07291 71.8429 3.81437 71.9283 3.5476 71.9744C3.21838 72.0308 2.88097 72.0161 2.55788 71.9311C2.23479 71.8461 1.93346 71.6929 1.674 71.4816C1.58907 71.4078 1.18913 71.1577 1.1902 71.0282V71.0241C1.19777 70.9096 1.28399 70.7924 1.29171 70.6778H1.29027C1.16906 70.6974 1.00996 70.6771 0.890339 70.6966C0.584527 70.3791 0.348025 70.001 0.195958 69.5865C0.0438904 69.172 -0.0203956 68.7301 0.00721067 68.2892C0.0305032 67.863 0.142946 67.4465 0.337208 67.0668C0.531471 66.6872 0.803194 66.3529 1.13466 66.0858L1.1605 66.0651C1.22852 66.1116 1.3024 66.1488 1.3802 66.1757C1.39808 66.1824 1.41505 66.1891 1.43391 66.1947L1.43816 66.1964C1.47967 66.0594 1.57164 65.8905 1.61498 65.7513C1.61756 65.7452 1.61971 65.7389 1.62142 65.7325C2.95244 65.2709 4.38278 65.1374 5.55205 66.6284C6.67829 68.0655 6.21108 69.608 5.45281 70.8007Z" fill="url(#paint42_linear_6125_156)" style="mix-blend-mode:screen"/>
<path d="M0.555664 69.4559C0.83506 69.812 1.20951 70.0809 1.63531 70.2311C2.0611 70.3814 2.52067 70.4069 2.96035 70.3047C3.39733 70.1928 3.80553 69.9886 4.15773 69.7057C4.50992 69.4228 4.798 69.0676 5.00275 68.664C5.17871 68.3694 5.28858 68.0398 5.3247 67.6982C5.36081 67.3566 5.3223 67.0112 5.21184 66.686C5.4717 67.0417 5.65599 67.4472 5.75324 67.8774C5.85049 68.3076 5.85863 68.7534 5.77716 69.1869C5.71884 69.566 5.57615 69.927 5.35973 70.2431C5.12949 70.5497 4.83337 70.8001 4.49342 70.9758C4.13684 71.1761 3.74349 71.3017 3.3372 71.3449C2.93091 71.388 2.52013 71.3479 2.12972 71.227C1.73787 71.0927 1.38712 70.8592 1.11138 70.5489C0.835639 70.2387 0.644233 69.8622 0.555664 69.4559Z" fill="url(#paint43_linear_6125_156)" style="mix-blend-mode:screen"/>
<path style="mix-blend-mode:screen" d="M1.12811 66.4497C1.4459 66.1138 1.84655 65.8684 2.28935 65.7385C2.48673 65.6559 2.70204 65.6262 2.91427 65.6522C3.1265 65.6782 3.3284 65.7589 3.50029 65.8867C3.6653 66.0407 3.7711 66.2482 3.79916 66.4727C3.80914 66.6787 3.74053 66.8808 3.60734 67.0377C3.33978 67.4625 2.97187 67.8142 2.53633 68.0617C2.10182 68.3077 1.63371 68.4884 1.14697 68.5978C0.990324 68.6523 0.820146 68.6531 0.662946 68.6003C0.576978 68.5502 0.504854 68.4793 0.453142 68.394C0.40143 68.3088 0.371775 68.2119 0.366877 68.1121C0.339007 67.7815 0.416618 67.4505 0.588474 67.1671C0.736136 66.9052 0.917582 66.6639 1.12811 66.4497Z" fill="url(#paint44_linear_6125_156)"/>
<path style="mix-blend-mode:screen" d="M5.08728 71.1943L5.01266 70.8199L3.04867 68.6498C3.06064 68.6382 3.07215 68.6262 3.08412 68.6147L2.84563 68.6094C2.17611 69.17 1.64384 69.8778 1.28991 70.678H1.29097C1.28339 70.7922 1.19718 70.9098 1.18945 71.0243V71.0284C1.6507 70.229 2.21217 69.4923 2.8601 68.8365C3.49055 69.722 4.24007 70.5155 5.08728 71.1943Z" fill="url(#paint45_linear_6125_156)"/>
<path d="M2.9266 68.5933C2.24109 69.1492 1.68616 69.8504 1.30141 70.6466C1.16151 70.6265 1.01881 70.6451 0.888672 70.7005C1.35133 69.8848 1.97317 69.1714 2.7169 68.6029C2.78653 68.6171 2.85856 68.6138 2.9266 68.5933Z" fill="url(#paint46_linear_6125_156)" style="mix-blend-mode:screen"/>
<path style="mix-blend-mode:screen" d="M2.92648 68.5933C2.85836 68.6133 2.78644 68.6166 2.71678 68.6029C1.96346 67.9308 1.41497 67.0581 1.13477 66.0859L1.1606 66.0652C1.22862 66.1117 1.3025 66.1489 1.3803 66.1758C1.73562 67.0743 2.26067 67.8952 2.92648 68.5933Z" fill="url(#paint47_linear_6125_156)"/>
<path d="M3.08333 68.6064C3.03188 68.6208 2.9773 68.6194 2.92666 68.6023C2.26693 67.9134 1.7583 67.0933 1.43359 66.1947L1.43784 66.1964C1.47935 66.0594 1.57132 65.8904 1.61466 65.7512C1.97003 66.7668 2.46432 67.7277 3.08333 68.6064Z" fill="url(#paint48_linear_6125_156)" style="mix-blend-mode:screen"/>
<path d="M3.08343 68.6064C3.74141 69.4694 4.54286 70.2118 5.45243 70.8007L5.01265 70.8197C4.18886 70.2142 3.48198 69.4628 2.92676 68.6023L3.08343 68.6064Z" fill="url(#paint49_linear_6125_156)" style="mix-blend-mode:screen"/>
<path style="mix-blend-mode:screen" d="M0.908626 66.6942C0.929097 66.6745 0.955562 66.6623 0.983771 66.6595C1.01198 66.6567 1.04029 66.6636 1.06416 66.6789C1.08976 66.7026 1.1071 66.7339 1.11363 66.7682C1.14474 66.8866 1.13403 67.0122 1.08333 67.1236C1.07539 67.1468 1.06224 67.1679 1.04492 67.1851C1.02759 67.2024 1.00654 67.2154 0.983401 67.2232C0.920521 67.2362 0.863246 67.1813 0.834458 67.1237C0.800484 67.0533 0.789366 66.974 0.802674 66.8969C0.815981 66.8199 0.853042 66.7489 0.908626 66.6942ZM1.50319 68.6056C1.51667 68.6703 1.54975 68.7291 1.59789 68.7741C1.6343 68.8015 1.67791 68.8175 1.72331 68.8202C1.7687 68.8229 1.81389 68.8122 1.85327 68.7893C1.89213 68.7656 1.92527 68.7335 1.95031 68.6953C1.97536 68.6571 1.99168 68.6139 1.99812 68.5686C2.01292 68.4819 1.99293 68.3928 1.94252 68.3207C1.92146 68.2917 1.89486 68.2671 1.86425 68.2484C1.83365 68.2298 1.79965 68.2174 1.76425 68.2121C1.72885 68.2068 1.69275 68.2086 1.65805 68.2174C1.62335 68.2262 1.59074 68.2419 1.56213 68.2635C1.45349 68.3405 1.47213 68.4899 1.50319 68.6056ZM0.837488 69.7112L0.848322 69.7246C0.880061 69.7618 0.921092 69.7897 0.967176 69.8056C1.01326 69.8214 1.06272 69.8246 1.11045 69.8148C1.15786 69.8036 1.20101 69.7788 1.23464 69.7434C1.26826 69.708 1.29092 69.6635 1.29985 69.6154C1.30308 69.5537 1.29375 69.492 1.27243 69.434C1.2511 69.3761 1.21823 69.3231 1.17583 69.2783C1.09121 69.1977 0.954612 69.2806 0.880368 69.3416C0.826053 69.385 0.791052 69.4482 0.783017 69.5175C0.774981 69.5867 0.794566 69.6564 0.837488 69.7112ZM2.80792 69.8422C2.85843 69.8543 2.91148 69.8494 2.95897 69.8283C3.00646 69.8073 3.04577 69.7711 3.07088 69.7255C3.0919 69.6824 3.09997 69.6341 3.09409 69.5865C3.08821 69.5388 3.06864 69.494 3.03777 69.4574C3.00584 69.4217 2.96495 69.3953 2.91939 69.3809C2.87382 69.3665 2.82525 69.3647 2.77875 69.3757C2.52412 69.4372 2.58723 69.7839 2.80792 69.8422ZM2.49495 66.9715C2.5554 66.9956 2.62204 66.9992 2.68469 66.9817C2.74735 66.9641 2.80255 66.9264 2.84186 66.8744C2.87918 66.8209 2.90097 66.758 2.90479 66.6927C2.90862 66.6275 2.89433 66.5624 2.86352 66.5049C2.83472 66.4447 2.78342 66.3984 2.72079 66.3761C2.65885 66.3618 2.59397 66.3682 2.53594 66.3942C2.48075 66.4129 2.43082 66.4446 2.39033 66.4867C2.36507 66.5253 2.34773 66.5686 2.33932 66.614C2.3309 66.6594 2.33159 66.706 2.34133 66.7512C2.35107 66.7963 2.36967 66.839 2.39605 66.8769C2.42243 66.9147 2.45605 66.9469 2.49495 66.9715ZM3.84446 69.0528C3.8907 69.0979 3.95149 69.1249 4.01583 69.1289C4.05158 69.1266 4.08642 69.1166 4.11794 69.0996C4.14947 69.0825 4.17692 69.0587 4.19841 69.0299C4.24721 68.9705 4.27697 68.8976 4.28379 68.8209C4.29061 68.7442 4.27417 68.6672 4.23663 68.6C4.19909 68.5328 4.1422 68.4786 4.07344 68.4445C4.00468 68.4104 3.92726 68.398 3.85135 68.409C3.79976 68.4148 3.75115 68.4362 3.71203 68.4705C3.56013 68.6147 3.7209 68.9442 3.84446 69.0528ZM5.38783 70.4028C5.42672 70.3803 5.45897 70.3478 5.48129 70.3087C5.5036 70.2696 5.5152 70.2252 5.51488 70.1802C5.51306 70.1431 5.50366 70.1068 5.48726 70.0736C5.47086 70.0403 5.44782 70.0108 5.41958 69.9869C5.36229 69.9392 5.29112 69.9114 5.21677 69.9078C5.17741 69.9036 5.13763 69.9092 5.10098 69.9242C5.06433 69.9392 5.03195 69.9631 5.00672 69.9937C4.98149 70.0244 4.9642 70.0608 4.9564 70.0998C4.94859 70.1388 4.95051 70.1791 4.96199 70.2171C4.97587 70.2589 4.99834 70.2972 5.02793 70.3296C5.05751 70.362 5.09356 70.3878 5.13372 70.4053C5.17388 70.4228 5.21726 70.4317 5.26104 70.4312C5.30482 70.4308 5.34802 70.4211 5.38783 70.4028ZM3.89832 71.241C3.96779 71.2935 4.05171 71.323 4.13856 71.3256C4.19516 71.3328 4.25261 71.3228 4.30346 71.2968C4.35431 71.2708 4.39621 71.23 4.42372 71.1798C4.43539 71.1469 4.43966 71.1117 4.4362 71.0769C4.43274 71.0421 4.42165 71.0085 4.40372 70.9785C4.36723 70.9187 4.31694 70.8686 4.25712 70.8326C4.19418 70.7893 4.12202 70.7615 4.04643 70.7514C4.00868 70.7466 3.97035 70.7494 3.93368 70.7596C3.89701 70.7698 3.86274 70.7873 3.83287 70.811C3.69726 70.9262 3.77794 71.1457 3.89832 71.241Z" fill="url(#paint50_linear_6125_156)"/>
</g>
<defs>
<linearGradient id="paint0_linear_6125_156" x1="29.0165" y1="20.1092" x2="67.4387" y2="82.7598" gradientUnits="userSpaceOnUse">
<stop stop-color="#44CCFF"/>
<stop offset="0.359375" stop-color="#3182A0"/>
<stop offset="0.682292" stop-color="#184252"/>
<stop offset="1" stop-color="#042531"/>
</linearGradient>
<linearGradient id="paint1_linear_6125_156" x1="30.5183" y1="37.3343" x2="53.132" y2="86.9927" gradientUnits="userSpaceOnUse">
<stop stop-color="#44CCFF"/>
<stop offset="0.359375" stop-color="#3182A0"/>
<stop offset="0.682292" stop-color="#184252"/>
<stop offset="1" stop-color="#042531"/>
</linearGradient>
<linearGradient id="paint2_linear_6125_156" x1="27.3341" y1="21.6454" x2="44.8595" y2="54.3236" gradientUnits="userSpaceOnUse">
<stop stop-color="#44CCFF"/>
<stop offset="0.359375" stop-color="#3182A0"/>
<stop offset="0.682292" stop-color="#184252"/>
<stop offset="1" stop-color="#042531"/>
</linearGradient>
<linearGradient id="paint3_linear_6125_156" x1="28.8326" y1="25.2336" x2="64.623" y2="82.8528" gradientUnits="userSpaceOnUse">
<stop stop-color="#44CCFF"/>
<stop offset="0.359375" stop-color="#3182A0"/>
<stop offset="0.682292" stop-color="#184252"/>
<stop offset="1" stop-color="#042531"/>
</linearGradient>
<linearGradient id="paint4_linear_6125_156" x1="33.3994" y1="47.2334" x2="49.4799" y2="71.9568" gradientUnits="userSpaceOnUse">
<stop stop-color="#44CCFF"/>
<stop offset="0.359375" stop-color="#3182A0"/>
<stop offset="0.682292" stop-color="#184252"/>
<stop offset="1" stop-color="#042531"/>
</linearGradient>
<linearGradient id="paint5_linear_6125_156" x1="72.0782" y1="57.8381" x2="86.0824" y2="66.5145" gradientUnits="userSpaceOnUse">
<stop stop-color="#44CCFF"/>
<stop offset="0.359375" stop-color="#3182A0"/>
<stop offset="0.682292" stop-color="#184252"/>
<stop offset="1" stop-color="#042531"/>
</linearGradient>
<linearGradient id="paint6_linear_6125_156" x1="63.2927" y1="37.4269" x2="67.2378" y2="46.4441" gradientUnits="userSpaceOnUse">
<stop stop-color="#44CCFF"/>
<stop offset="0.359375" stop-color="#3182A0"/>
<stop offset="0.682292" stop-color="#184252"/>
<stop offset="1" stop-color="#042531"/>
</linearGradient>
<linearGradient id="paint7_linear_6125_156" x1="53.6862" y1="23.5677" x2="54.3613" y2="28.9981" gradientUnits="userSpaceOnUse">
<stop stop-color="#44CCFF"/>
<stop offset="0.359375" stop-color="#3182A0"/>
<stop offset="0.682292" stop-color="#184252"/>
<stop offset="1" stop-color="#042531"/>
</linearGradient>
<linearGradient id="paint8_linear_6125_156" x1="33.2166" y1="23.7845" x2="35.6955" y2="30.1654" gradientUnits="userSpaceOnUse">
<stop stop-color="#44CCFF"/>
<stop offset="0.359375" stop-color="#3182A0"/>
<stop offset="0.682292" stop-color="#184252"/>
<stop offset="1" stop-color="#042531"/>
</linearGradient>
<linearGradient id="paint9_linear_6125_156" x1="27.8819" y1="34.8142" x2="30.47" y2="37.9328" gradientUnits="userSpaceOnUse">
<stop stop-color="#44CCFF"/>
<stop offset="0.359375" stop-color="#3182A0"/>
<stop offset="0.682292" stop-color="#184252"/>
<stop offset="1" stop-color="#042531"/>
</linearGradient>
<linearGradient id="paint10_linear_6125_156" x1="15.1144" y1="63.9263" x2="15.3883" y2="64.9616" gradientUnits="userSpaceOnUse">
<stop stop-color="#44CCFF"/>
<stop offset="0.359375" stop-color="#3182A0"/>
<stop offset="0.682292" stop-color="#184252"/>
<stop offset="1" stop-color="#042531"/>
</linearGradient>
<linearGradient id="paint11_linear_6125_156" x1="35.6765" y1="81.619" x2="38.3353" y2="91.9061" gradientUnits="userSpaceOnUse">
<stop stop-color="#44CCFF"/>
<stop offset="0.359375" stop-color="#3182A0"/>
<stop offset="0.682292" stop-color="#184252"/>
<stop offset="1" stop-color="#042531"/>
</linearGradient>
<linearGradient id="paint12_linear_6125_156" x1="16.5532" y1="35.8721" x2="23.1909" y2="45.089" gradientUnits="userSpaceOnUse">
<stop stop-color="#44CCFF"/>
<stop offset="0.359375" stop-color="#3182A0"/>
<stop offset="0.682292" stop-color="#184252"/>
<stop offset="1" stop-color="#042531"/>
</linearGradient>
<linearGradient id="paint13_linear_6125_156" x1="30.5114" y1="20.3" x2="66.3776" y2="79.2608" gradientUnits="userSpaceOnUse">
<stop stop-color="#44CCFF"/>
<stop offset="0.359375" stop-color="#3182A0"/>
<stop offset="0.682292" stop-color="#184252"/>
<stop offset="1" stop-color="#042531"/>
</linearGradient>
<linearGradient id="paint14_linear_6125_156" x1="44.2063" y1="32.004" x2="62.4024" y2="56.7394" gradientUnits="userSpaceOnUse">
<stop stop-color="#44CCFF"/>
<stop offset="0.359375" stop-color="#3182A0"/>
<stop offset="0.682292" stop-color="#184252"/>
<stop offset="1" stop-color="#042531"/>
</linearGradient>
<linearGradient id="paint15_linear_6125_156" x1="59.6077" y1="34.1374" x2="62.2571" y2="36.7759" gradientUnits="userSpaceOnUse">
<stop stop-color="#44CCFF"/>
<stop offset="0.359375" stop-color="#3182A0"/>
<stop offset="0.682292" stop-color="#184252"/>
<stop offset="1" stop-color="#042531"/>
</linearGradient>
<linearGradient id="paint16_linear_6125_156" x1="40.9187" y1="31.4371" x2="43.9304" y2="39.0535" gradientUnits="userSpaceOnUse">
<stop stop-color="#44CCFF"/>
<stop offset="0.359375" stop-color="#3182A0"/>
<stop offset="0.682292" stop-color="#184252"/>
<stop offset="1" stop-color="#042531"/>
</linearGradient>
<linearGradient id="paint17_linear_6125_156" x1="52.5241" y1="53.6473" x2="56.4788" y2="63.9971" gradientUnits="userSpaceOnUse">
<stop stop-color="#44CCFF"/>
<stop offset="0.359375" stop-color="#3182A0"/>
<stop offset="0.682292" stop-color="#184252"/>
<stop offset="1" stop-color="#042531"/>
</linearGradient>
<linearGradient id="paint18_linear_6125_156" x1="60.4039" y1="56.8164" x2="73.4952" y2="74.3974" gradientUnits="userSpaceOnUse">
<stop stop-color="#44CCFF"/>
<stop offset="0.359375" stop-color="#3182A0"/>
<stop offset="0.682292" stop-color="#184252"/>
<stop offset="1" stop-color="#042531"/>
</linearGradient>
<linearGradient id="paint19_linear_6125_156" x1="59.4314" y1="56.6828" x2="72.6777" y2="71.2114" gradientUnits="userSpaceOnUse">
<stop stop-color="#44CCFF"/>
<stop offset="0.359375" stop-color="#3182A0"/>
<stop offset="0.682292" stop-color="#184252"/>
<stop offset="1" stop-color="#042531"/>
</linearGradient>
<linearGradient id="paint20_linear_6125_156" x1="30.6376" y1="20.2736" x2="65.4177" y2="78.9959" gradientUnits="userSpaceOnUse">
<stop stop-color="#44CCFF"/>
<stop offset="0.359375" stop-color="#3182A0"/>
<stop offset="0.682292" stop-color="#184252"/>
<stop offset="1" stop-color="#042531"/>
</linearGradient>
<linearGradient id="paint21_linear_6125_156" x1="33.5913" y1="38.9727" x2="37.1689" y2="46.0693" gradientUnits="userSpaceOnUse">
<stop stop-color="#44CCFF"/>
<stop offset="0.359375" stop-color="#3182A0"/>
<stop offset="0.682292" stop-color="#184252"/>
<stop offset="1" stop-color="#042531"/>
</linearGradient>
<linearGradient id="paint22_linear_6125_156" x1="35.5483" y1="27.3502" x2="37.5979" y2="31.9221" gradientUnits="userSpaceOnUse">
<stop stop-color="#44CCFF"/>
<stop offset="0.359375" stop-color="#3182A0"/>
<stop offset="0.682292" stop-color="#184252"/>
<stop offset="1" stop-color="#042531"/>
</linearGradient>
<linearGradient id="paint23_linear_6125_156" x1="64.3442" y1="62.6868" x2="70.9381" y2="72.2528" gradientUnits="userSpaceOnUse">
<stop stop-color="#44CCFF"/>
<stop offset="0.359375" stop-color="#3182A0"/>
<stop offset="0.682292" stop-color="#184252"/>
<stop offset="1" stop-color="#042531"/>
</linearGradient>
<linearGradient id="paint24_linear_6125_156" x1="5.65046" y1="0.896214" x2="15.1701" y2="15.6422" gradientUnits="userSpaceOnUse">
<stop stop-color="#44CCFF"/>
<stop offset="0.359375" stop-color="#3182A0"/>
<stop offset="0.682292" stop-color="#184252"/>
<stop offset="1" stop-color="#042531"/>
</linearGradient>
<linearGradient id="paint25_linear_6125_156" x1="6.42636" y1="4.61223" x2="12.2024" y2="15.8869" gradientUnits="userSpaceOnUse">
<stop stop-color="#44CCFF"/>
<stop offset="0.359375" stop-color="#3182A0"/>
<stop offset="0.682292" stop-color="#184252"/>
<stop offset="1" stop-color="#042531"/>
</linearGradient>
<linearGradient id="paint26_linear_6125_156" x1="5.19185" y1="1.22006" x2="8.70094" y2="8.47434" gradientUnits="userSpaceOnUse">
<stop stop-color="#44CCFF"/>
<stop offset="0.359375" stop-color="#3182A0"/>
<stop offset="0.682292" stop-color="#184252"/>
<stop offset="1" stop-color="#042531"/>
</linearGradient>
<linearGradient id="paint27_linear_6125_156" x1="6.90143" y1="9.07184" x2="10.1209" y2="16.4496" gradientUnits="userSpaceOnUse">
<stop stop-color="#44CCFF"/>
<stop offset="0.359375" stop-color="#3182A0"/>
<stop offset="0.682292" stop-color="#184252"/>
<stop offset="1" stop-color="#042531"/>
</linearGradient>
<linearGradient id="paint28_linear_6125_156" x1="5.21439" y1="8.97536" x2="7.76818" y2="13.7511" gradientUnits="userSpaceOnUse">
<stop stop-color="#44CCFF"/>
<stop offset="0.359375" stop-color="#3182A0"/>
<stop offset="0.682292" stop-color="#184252"/>
<stop offset="1" stop-color="#042531"/>
</linearGradient>
<linearGradient id="paint29_linear_6125_156" x1="6.53565" y1="1.94079" x2="10.7838" y2="6.03009" gradientUnits="userSpaceOnUse">
<stop stop-color="#44CCFF"/>
<stop offset="0.359375" stop-color="#3182A0"/>
<stop offset="0.682292" stop-color="#184252"/>
<stop offset="1" stop-color="#042531"/>
</linearGradient>
<linearGradient id="paint30_linear_6125_156" x1="7.22709" y1="1.2294" x2="11.8251" y2="4.87685" gradientUnits="userSpaceOnUse">
<stop stop-color="#44CCFF"/>
<stop offset="0.359375" stop-color="#3182A0"/>
<stop offset="0.682292" stop-color="#184252"/>
<stop offset="1" stop-color="#042531"/>
</linearGradient>
<linearGradient id="paint31_linear_6125_156" x1="11.1605" y1="9.0501" x2="14.6043" y2="14.5175" gradientUnits="userSpaceOnUse">
<stop stop-color="#44CCFF"/>
<stop offset="0.359375" stop-color="#3182A0"/>
<stop offset="0.682292" stop-color="#184252"/>
<stop offset="1" stop-color="#042531"/>
</linearGradient>
<linearGradient id="paint32_linear_6125_156" x1="6.60716" y1="3.2251" x2="14.0282" y2="14.4028" gradientUnits="userSpaceOnUse">
<stop stop-color="#44CCFF"/>
<stop offset="0.359375" stop-color="#3182A0"/>
<stop offset="0.682292" stop-color="#184252"/>
<stop offset="1" stop-color="#042531"/>
</linearGradient>
<linearGradient id="paint33_linear_6125_156" x1="85.298" y1="78.0824" x2="91.694" y2="87.9895" gradientUnits="userSpaceOnUse">
<stop stop-color="#44CCFF"/>
<stop offset="0.359375" stop-color="#3182A0"/>
<stop offset="0.682292" stop-color="#184252"/>
<stop offset="1" stop-color="#042531"/>
</linearGradient>
<linearGradient id="paint34_linear_6125_156" x1="85.8191" y1="80.5791" x2="89.6999" y2="88.154" gradientUnits="userSpaceOnUse">
<stop stop-color="#44CCFF"/>
<stop offset="0.359375" stop-color="#3182A0"/>
<stop offset="0.682292" stop-color="#184252"/>
<stop offset="1" stop-color="#042531"/>
</linearGradient>
<linearGradient id="paint35_linear_6125_156" x1="84.9898" y1="78.2751" x2="87.3672" y2="83.1645" gradientUnits="userSpaceOnUse">
<stop stop-color="#44CCFF"/>
<stop offset="0.359375" stop-color="#3182A0"/>
<stop offset="0.682292" stop-color="#184252"/>
<stop offset="1" stop-color="#042531"/>
</linearGradient>
<linearGradient id="paint36_linear_6125_156" x1="86.1374" y1="83.5755" x2="88.3003" y2="88.5324" gradientUnits="userSpaceOnUse">
<stop stop-color="#44CCFF"/>
<stop offset="0.359375" stop-color="#3182A0"/>
<stop offset="0.682292" stop-color="#184252"/>
<stop offset="1" stop-color="#042531"/>
</linearGradient>
<linearGradient id="paint37_linear_6125_156" x1="85.005" y1="83.5106" x2="86.7208" y2="86.7192" gradientUnits="userSpaceOnUse">
<stop stop-color="#44CCFF"/>
<stop offset="0.359375" stop-color="#3182A0"/>
<stop offset="0.682292" stop-color="#184252"/>
<stop offset="1" stop-color="#042531"/>
</linearGradient>
<linearGradient id="paint38_linear_6125_156" x1="85.8921" y1="78.7846" x2="88.7463" y2="81.5321" gradientUnits="userSpaceOnUse">
<stop stop-color="#44CCFF"/>
<stop offset="0.359375" stop-color="#3182A0"/>
<stop offset="0.682292" stop-color="#184252"/>
<stop offset="1" stop-color="#042531"/>
</linearGradient>
<linearGradient id="paint39_linear_6125_156" x1="86.3579" y1="78.3066" x2="89.447" y2="80.7572" gradientUnits="userSpaceOnUse">
<stop stop-color="#44CCFF"/>
<stop offset="0.359375" stop-color="#3182A0"/>
<stop offset="0.682292" stop-color="#184252"/>
<stop offset="1" stop-color="#042531"/>
</linearGradient>
<linearGradient id="paint40_linear_6125_156" x1="89.0001" y1="83.5609" x2="91.3137" y2="87.2342" gradientUnits="userSpaceOnUse">
<stop stop-color="#44CCFF"/>
<stop offset="0.359375" stop-color="#3182A0"/>
<stop offset="0.682292" stop-color="#184252"/>
<stop offset="1" stop-color="#042531"/>
</linearGradient>
<linearGradient id="paint41_linear_6125_156" x1="85.9413" y1="79.6476" x2="90.9271" y2="87.1576" gradientUnits="userSpaceOnUse">
<stop stop-color="#44CCFF"/>
<stop offset="0.359375" stop-color="#3182A0"/>
<stop offset="0.682292" stop-color="#184252"/>
<stop offset="1" stop-color="#042531"/>
</linearGradient>
<linearGradient id="paint42_linear_6125_156" x1="1.35465" y1="65.5681" x2="4.9393" y2="71.1144" gradientUnits="userSpaceOnUse">
<stop stop-color="#44CCFF"/>
<stop offset="0.359375" stop-color="#3182A0"/>
<stop offset="0.682292" stop-color="#184252"/>
<stop offset="1" stop-color="#042531"/>
</linearGradient>
<linearGradient id="paint43_linear_6125_156" x1="1.70347" y1="66.7919" x2="4.03839" y2="71.1087" gradientUnits="userSpaceOnUse">
<stop stop-color="#44CCFF"/>
<stop offset="0.359375" stop-color="#3182A0"/>
<stop offset="0.682292" stop-color="#184252"/>
<stop offset="1" stop-color="#042531"/>
</linearGradient>
<linearGradient id="paint44_linear_6125_156" x1="1.10929" y1="65.7109" x2="2.59173" y2="68.498" gradientUnits="userSpaceOnUse">
<stop stop-color="#44CCFF"/>
<stop offset="0.359375" stop-color="#3182A0"/>
<stop offset="0.682292" stop-color="#184252"/>
<stop offset="1" stop-color="#042531"/>
</linearGradient>
<linearGradient id="paint45_linear_6125_156" x1="2.03726" y1="68.6679" x2="3.11024" y2="71.3183" gradientUnits="userSpaceOnUse">
<stop stop-color="#44CCFF"/>
<stop offset="0.359375" stop-color="#3182A0"/>
<stop offset="0.682292" stop-color="#184252"/>
<stop offset="1" stop-color="#042531"/>
</linearGradient>
<linearGradient id="paint46_linear_6125_156" x1="1.33193" y1="68.641" x2="2.46699" y2="70.4392" gradientUnits="userSpaceOnUse">
<stop stop-color="#44CCFF"/>
<stop offset="0.359375" stop-color="#3182A0"/>
<stop offset="0.682292" stop-color="#184252"/>
<stop offset="1" stop-color="#042531"/>
</linearGradient>
<linearGradient id="paint47_linear_6125_156" x1="1.52447" y1="66.1228" x2="3.02842" y2="67.8565" gradientUnits="userSpaceOnUse">
<stop stop-color="#44CCFF"/>
<stop offset="0.359375" stop-color="#3182A0"/>
<stop offset="0.682292" stop-color="#184252"/>
<stop offset="1" stop-color="#042531"/>
</linearGradient>
<linearGradient id="paint48_linear_6125_156" x1="1.79242" y1="65.8161" x2="3.49903" y2="67.4258" gradientUnits="userSpaceOnUse">
<stop stop-color="#44CCFF"/>
<stop offset="0.359375" stop-color="#3182A0"/>
<stop offset="0.682292" stop-color="#184252"/>
<stop offset="1" stop-color="#042531"/>
</linearGradient>
<linearGradient id="paint49_linear_6125_156" x1="3.47611" y1="68.6525" x2="4.57787" y2="70.7082" gradientUnits="userSpaceOnUse">
<stop stop-color="#44CCFF"/>
<stop offset="0.359375" stop-color="#3182A0"/>
<stop offset="0.682292" stop-color="#184252"/>
<stop offset="1" stop-color="#042531"/>
</linearGradient>
<linearGradient id="paint50_linear_6125_156" x1="1.81085" y1="66.4809" x2="4.49706" y2="70.681" gradientUnits="userSpaceOnUse">
<stop stop-color="#44CCFF"/>
<stop offset="0.359375" stop-color="#3182A0"/>
<stop offset="0.682292" stop-color="#184252"/>
<stop offset="1" stop-color="#042531"/>
</linearGradient>
<clipPath id="clip0_6125_156">
<rect width="94" height="90.2184" fill="white" transform="translate(0 0.5)"/>
</clipPath>
</defs>
</svg>
